<svg width="50" height="32" viewBox="0 0 50 32" fill="none" xmlns="http://www.w3.org/2000/svg">
<g id="BitPay" clip-path="url(#clip0_952_3724)">
<g id="BitPay_2">
<rect id="Rectangle" width="50" height="32" rx="3" fill="#2E408B"/>
<path id="Vector" d="M43 12.6819H41.1474L40.0526 17.2469L39.8842 17.8809C39.7579 17.9232 39.6737 17.9232 39.5474 17.9654C39.3789 18.0077 39.2105 18.0077 39 18.0077C38.7474 18.0077 38.5789 17.9654 38.4105 17.8809C38.2842 17.7964 38.1579 17.7118 38.1158 17.585C38.0737 17.4582 38.0316 17.2892 38.0316 17.1201C38.0316 16.951 38.0737 16.7397 38.1158 16.5706L38.7053 14.2036L39.0842 12.6397H37.1895L36.3053 16.317C36.1789 16.7819 36.1368 17.2046 36.1368 17.5428C36.1368 17.9654 36.1789 18.3036 36.3053 18.5995C36.4316 18.8953 36.6842 19.149 37.0211 19.318C37.3579 19.4871 37.8211 19.5716 38.3684 19.5716C38.7895 19.5716 39.1684 19.5294 39.4632 19.4448H39.5053C39.4211 19.8252 39.2526 20.1211 38.9579 20.3747C38.6632 20.6283 38.2842 20.7552 37.7789 20.7552C37.5684 20.7552 37.3158 20.7552 37.1474 20.7129L36.7684 22.2345C37.0211 22.2768 37.3158 22.2768 37.6105 22.2768C38.2 22.2768 38.7053 22.1923 39.0842 22.0655C39.5053 21.9387 39.8842 21.7273 40.2211 21.4737C40.5158 21.2201 40.8105 20.882 41.0211 20.4593C41.2316 20.0366 41.4 19.5716 41.5263 19.0644L42.7895 13.6118L43 12.6819ZM35.2105 16.6129C35.0842 17.0778 35.0421 17.585 35.0842 18.05C35.1263 18.5572 35.3368 19.2335 35.5053 19.6139H33.6947C33.4842 19.2335 33.4842 19.0644 33.4421 18.9376C33.1895 19.149 32.9368 19.2758 32.6421 19.4026C32.3474 19.5294 32.0526 19.6139 31.6737 19.6139C31.2526 19.6139 30.8737 19.5294 30.5789 19.4026C30.2842 19.2758 30.0316 19.0644 29.8211 18.8108C29.6105 18.5572 29.4842 18.2613 29.4 17.9232C29.3158 17.585 29.2737 17.2469 29.2737 16.8242C29.2737 16.2325 29.4 15.683 29.5684 15.218C29.7789 14.7108 30.0737 14.2458 30.4526 13.9077C30.8316 13.5273 31.6737 12.6819 33.1474 12.6819H36.0526L35.2105 16.6129ZM33.8632 14.2881C32.9789 14.2881 32.8105 14.2881 32.4737 14.4572C32.2211 14.584 32.0105 14.7953 31.8 15.0489C31.6316 15.2603 31.4632 15.5562 31.3368 15.852C31.2105 16.1479 31.1684 16.4861 31.1684 16.8242C31.1684 17.2469 31.2526 17.5428 31.3789 17.7964C31.5053 18.05 31.7579 18.1345 32.1368 18.1345C32.3474 18.1345 32.5158 18.0923 32.6842 18.0077C32.8526 17.9232 33.0211 17.7964 33.1895 17.6273C33.1895 17.416 33.2316 17.2046 33.2737 16.951C33.3158 16.6974 33.3579 16.4861 33.4 16.317L33.8632 14.2881ZM28.8526 15.4294C28.8526 16.0634 28.7263 16.6129 28.5579 17.1201C28.3474 17.6273 28.0526 18.0923 27.7158 18.4304C27.3368 18.8108 26.9158 19.1067 26.4526 19.318C25.9474 19.5294 25.4 19.6562 24.8526 19.6562C24.5579 19.6562 24.2632 19.6139 23.9684 19.5716L23.3789 21.8541H21.5263L23.6737 12.7242H26.1579C26.6211 12.7242 27.0421 12.8087 27.3368 12.9355C27.6737 13.0623 27.9684 13.2737 28.1789 13.5273C28.3895 13.7809 28.5579 14.0768 28.6842 14.4149C28.8105 14.7108 28.8526 15.0489 28.8526 15.4294ZM24.2632 18.0077C24.3895 18.05 24.6 18.05 24.8105 18.05C25.1474 18.05 25.4421 18.0077 25.7368 17.8809C25.9895 17.7541 26.2421 17.585 26.4526 17.3737C26.6632 17.1624 26.7895 16.8665 26.9158 16.5706C27.0421 16.2747 27.0842 15.8943 27.0842 15.5139C27.0842 15.1335 27 14.8376 26.8316 14.584C26.6632 14.3304 26.3684 14.2036 25.9895 14.2036H25.2316L24.2632 18.0077ZM20.3895 18.0077C20.1368 18.0077 19.9684 17.9654 19.8 17.8809C19.6737 17.7964 19.5474 17.7118 19.5053 17.585C19.4632 17.4582 19.4211 17.2892 19.4211 17.1201C19.4211 16.951 19.4632 16.7397 19.5053 16.5706L20.0947 14.2036H22.2L22.5789 12.6397H20.4316L20.9368 10.653L18.9579 10.9912L17.6947 16.3593C17.5684 16.8242 17.5263 17.2469 17.5263 17.585C17.5263 18.0077 17.5684 18.3459 17.6947 18.6417C17.8211 18.9376 18.0737 19.1912 18.4105 19.3603C18.7474 19.5294 19.2105 19.6139 19.7579 19.6139C20.1789 19.6139 20.5579 19.5716 20.8526 19.4871C20.8947 19.4871 20.9368 19.4871 20.9789 19.4448L21.3579 17.8386C21.2316 17.8809 21.1053 17.9232 20.9789 17.9232C20.7684 18.0077 20.6 18.0077 20.3895 18.0077ZM15.6316 12.6819L13.9895 19.6139H15.8421L17.4842 12.6819H15.6316ZM17.6526 11.8788L17.9474 10.6953H16.0947L15.8 11.8788H17.6526ZM11.5053 12.6819C11.9263 12.6819 12.2632 12.7665 12.5579 12.8933C12.8526 13.0201 13.1053 13.2314 13.3158 13.485C13.5263 13.7386 13.6526 14.0345 13.7368 14.3726C13.8211 14.7108 13.8632 15.0489 13.8632 15.4294C13.8632 16.0211 13.7368 16.5706 13.5263 17.0778C13.3158 17.585 13.0211 18.05 12.6421 18.4304C12.2632 18.8531 11.8421 19.1067 11.3368 19.3603C10.8316 19.5716 10.2842 19.6984 9.73684 19.6984H9.27368C9.06316 19.6984 8.85263 19.6984 8.6 19.6562C8.34737 19.6139 8.09474 19.5716 7.8 19.4871C7.50526 19.4026 7.25263 19.318 7 19.1912L9.18947 10.019L11.1263 9.72314L10.3263 12.9778C10.4947 12.8933 10.6632 12.851 10.8316 12.8087C11.1263 12.6819 11.2947 12.6819 11.5053 12.6819ZM9.82105 18.0923C10.1158 18.0923 10.4105 18.0077 10.6632 17.8809C10.9158 17.7541 11.1684 17.5428 11.3368 17.2892C11.5474 17.0355 11.6737 16.7819 11.8 16.4861C11.9263 16.1902 11.9684 15.852 11.9684 15.5139C11.9684 15.0912 11.8842 14.7953 11.7579 14.5417C11.6316 14.3304 11.3368 14.2036 10.9579 14.2036C10.8316 14.2036 10.7053 14.2036 10.5368 14.2458C10.3263 14.2881 10.2 14.3726 10.0316 14.4995L9.18947 17.9654C9.44211 18.0077 9.52632 18.0077 9.56842 18.0077C9.65263 18.0923 9.73684 18.0923 9.82105 18.0923Z" fill="white"/>
</g>
</g>
<defs>
<clipPath id="clip0_952_3724">
<rect width="50" height="32" fill="white"/>
</clipPath>
</defs>
</svg>
