<svg width="50" height="32" viewBox="0 0 50 32" fill="none" xmlns="http://www.w3.org/2000/svg">
<g id="Google Pay">
<g id="Google Pay_2">
<rect id="Rectangle" width="50" height="32" rx="3" fill="#5485EC"/>
<g id="Group">
<path id="Vector" d="M23.9716 16.827V21.2502H22.5684V10.3269H26.2899C26.7342 10.3176 27.1758 10.3964 27.5895 10.5587C28.0031 10.721 28.3805 10.9636 28.6998 11.2726C29.0224 11.5627 29.2791 11.9186 29.4528 12.3162C29.6264 12.7138 29.7129 13.144 29.7065 13.5778C29.7157 14.014 29.6305 14.447 29.4568 14.8472C29.283 15.2473 29.0248 15.6052 28.6998 15.8962C28.0491 16.5168 27.2458 16.8268 26.2899 16.8262H23.9716V16.827ZM23.9716 11.6717V15.4848H26.3248C26.5828 15.4925 26.8395 15.4462 27.0786 15.3489C27.3177 15.2517 27.5338 15.1056 27.7132 14.9201C27.8917 14.7466 28.0335 14.539 28.1304 14.3098C28.2272 14.0805 28.2771 13.8341 28.2771 13.5853C28.2771 13.3364 28.2272 13.09 28.1304 12.8607C28.0335 12.6315 27.8917 12.4239 27.7132 12.2505C27.5361 12.061 27.3207 11.9113 27.0813 11.8114C26.842 11.7115 26.5841 11.6636 26.3248 11.6709H23.9716V11.6717Z" fill="white"/>
<path id="Vector_2" d="M32.9397 13.5327C33.9769 13.5327 34.7955 13.8099 35.3958 14.3642C35.996 14.9185 36.2958 15.6785 36.2952 16.6442V21.2504H34.953V20.2133H34.892C34.311 21.0674 33.5382 21.4945 32.5736 21.4945C31.7503 21.4945 31.0615 21.2504 30.5071 20.7624C30.2411 20.5383 30.0285 20.2578 29.8846 19.9412C29.7408 19.6245 29.6694 19.2798 29.6757 18.9321C29.6757 18.1587 29.9679 17.5437 30.5525 17.087C31.137 16.6303 31.9173 16.4013 32.8935 16.4002C33.7267 16.4002 34.4129 16.5527 34.9521 16.8577V16.537C34.9537 16.3 34.9025 16.0655 34.8023 15.8507C34.702 15.6359 34.5552 15.4461 34.3725 15.295C34.0015 14.9602 33.5179 14.7776 33.0181 14.7834C32.2343 14.7834 31.614 15.114 31.1573 15.7753L29.9215 14.9969C30.6013 14.0208 31.6074 13.5327 32.9397 13.5327ZM31.1242 18.9626C31.1233 19.1412 31.165 19.3174 31.246 19.4766C31.3269 19.6358 31.4448 19.7733 31.5896 19.8777C31.9 20.1218 32.2852 20.2512 32.68 20.2438C33.2721 20.2428 33.8397 20.0071 34.2584 19.5884C34.7232 19.1508 34.9556 18.6375 34.9556 18.0483C34.5181 17.6997 33.908 17.5254 33.1253 17.5254C32.5553 17.5254 32.08 17.6628 31.6995 17.9376C31.3151 18.2165 31.1242 18.5555 31.1242 18.9626Z" fill="white"/>
<path id="Vector_3" d="M43.9997 13.7769L39.3142 24.5451H37.8656L39.6044 20.7773L36.5234 13.7769H38.0487L40.2755 19.1457H40.306L42.4719 13.7769H43.9997Z" fill="white"/>
<g id="Group_2">
<path id="Vector_4" d="M18.3009 15.8736C18.3014 15.446 18.2653 15.0191 18.1928 14.5977H12.2749V17.0145H15.6644C15.5951 17.4005 15.4483 17.7685 15.2329 18.0962C15.0175 18.424 14.7379 18.7047 14.4111 18.9215V20.4903H16.434C17.6185 19.3982 18.3009 17.7832 18.3009 15.8736Z" fill="white"/>
<path id="Vector_5" d="M12.2748 22.0059C13.9682 22.0059 15.3941 21.4498 16.4339 20.4911L14.411 18.9223C13.8479 19.304 13.1228 19.5219 12.2748 19.5219C10.638 19.5219 9.24868 18.4185 8.75188 16.9316H6.66797V18.5484C7.19027 19.5877 7.99116 20.4614 8.98123 21.072C9.97129 21.6825 11.1116 22.0058 12.2748 22.0059Z" fill="white"/>
<path id="Vector_6" d="M8.75212 16.9319C8.48948 16.1527 8.48948 15.309 8.75212 14.5298V12.9131H6.6682C6.22883 13.7874 6 14.7524 6 15.7309C6 16.7094 6.22883 17.6743 6.6682 18.5486L8.75212 16.9319Z" fill="white"/>
<path id="Vector_7" d="M12.2752 11.9395C13.1702 11.9248 14.0349 12.263 14.6825 12.8807L16.4736 11.0897C15.3378 10.0229 13.8333 9.43729 12.2752 9.45549C11.1121 9.45554 9.97178 9.77889 8.98172 10.3894C7.99165 11 7.19076 11.8737 6.66846 12.913L8.75237 14.5297C9.24916 13.0429 10.6384 11.9395 12.2752 11.9395Z" fill="white"/>
</g>
</g>
</g>
</g>
</svg>
