<svg width="50" height="32" viewBox="0 0 50 32" fill="none" xmlns="http://www.w3.org/2000/svg">
<g id="monobank" clip-path="url(#clip0_952_3715)">
<g id="monobank_2">
<rect id="Rectangle" width="50" height="32" rx="3" fill="black"/>
<g id="Group">
<path id="Vector" fill-rule="evenodd" clip-rule="evenodd" d="M41.3986 18.1833H42.1271V20.5003H42.1682L43.1155 19.3873L43.7873 19.3856L42.7482 20.6021L44 22.1235H43.161L42.1376 20.7074H42.1271V22.1235H41.3986V18.1833ZM6.76902 18.3596V20.5201C6.76902 21.2562 6.98694 21.6585 7.59754 21.6585C8.18189 21.6585 8.41557 21.1707 8.41557 20.5627V18.3596H9.10407V20.6972C9.10407 21.6477 8.4815 22.1863 7.57595 22.1863C6.53913 22.1863 6 21.6853 6 20.6596V18.3596H6.76902ZM10.7133 19.7514C10.9598 19.4938 11.3029 19.3701 11.6471 19.3701C12.2854 19.3701 12.6233 19.7132 12.6233 20.3903V22.1212H11.8989V20.4717C11.8989 20.0951 11.73 19.8477 11.3528 19.8477C10.998 19.8477 10.7194 20.079 10.7194 20.5201V22.1212H9.99415V19.434H10.7133V19.7514ZM13.4757 22.1212H14.2013V19.434H13.4757V22.1212ZM13.4045 18.6282C13.4045 18.4243 13.5787 18.2143 13.8252 18.2143C14.0761 18.2143 14.2716 18.4188 14.2716 18.6282C14.2716 18.859 14.1035 19.0796 13.8357 19.0796C13.579 19.0796 13.4045 18.859 13.4045 18.6282ZM15.8064 22.1212L14.6453 19.4226H15.414C15.6491 20.0408 15.893 20.6223 16.1218 21.3691H16.1328C16.3794 20.6223 16.6113 20.0408 16.8619 19.4226H17.5425L16.3131 22.1212H15.8064ZM19.7014 20.4557C19.7297 20.0461 19.582 19.7675 19.2229 19.7675C18.8066 19.7675 18.6199 20.0951 18.6278 20.4557H19.7014ZM18.6158 20.8425C18.5995 21.3481 18.9595 21.7236 19.4122 21.7236C19.6812 21.7236 19.9636 21.6322 20.1445 21.5083L20.3516 21.8849C19.9805 22.0996 19.5925 22.1863 19.2818 22.1863C18.4577 22.1863 17.8415 21.6107 17.8415 20.7241C17.8415 19.8961 18.4519 19.3701 19.2325 19.3701C20.0838 19.3701 20.4389 20.0414 20.3852 20.8425H18.6158ZM21.8091 19.9069H21.8194L21.967 19.6975C22.0481 19.5787 22.212 19.3701 22.4358 19.3701C22.5995 19.3701 22.7748 19.4562 22.9277 19.6114L22.654 20.1059C22.5341 20.0461 22.4574 20.0146 22.3109 20.0146C22.0597 20.0146 21.8144 20.2135 21.8144 20.7935V22.1212H21.0865V19.434H21.8091V19.9069ZM24.8645 19.939C24.7011 19.8209 24.5319 19.7675 24.4 19.7675C24.2367 19.7675 24.0727 19.8585 24.0727 20.0414C24.0727 20.2564 24.3353 20.3804 24.6404 20.5998C25.029 20.886 25.1425 21.1652 25.1425 21.4111C25.1425 21.7886 24.7218 22.1863 24.1226 22.1863C23.7457 22.1863 23.4677 22.0567 23.2118 21.8796L23.4408 21.5083C23.6036 21.6381 23.8379 21.7662 24.0339 21.7662C24.2428 21.7662 24.4275 21.6585 24.4275 21.433C24.4275 21.1803 24.1433 21.0409 23.8822 20.858C23.5709 20.6488 23.3588 20.4443 23.3588 20.1117C23.3588 19.6864 23.7725 19.3701 24.307 19.3701C24.6083 19.3701 24.9021 19.4448 25.0999 19.6175L24.8645 19.939ZM26.9317 20.6917C26.5776 20.8046 26.3976 21.0033 26.3976 21.3093C26.3976 21.5462 26.5504 21.7075 26.7263 21.7075C27.0143 21.7075 27.3912 21.3525 27.3372 20.5627L26.9317 20.6917ZM27.1622 21.8636C26.9653 22.0249 26.7144 22.1863 26.4641 22.1863C26.0381 22.1863 25.6822 21.8636 25.6822 21.3691C25.6822 20.858 26.0597 20.5735 26.6931 20.3903L27.3372 20.2022C27.2993 19.9553 27.0747 19.7999 26.8413 19.7999C26.5291 19.7999 26.3106 19.9128 26.1198 20.0741L25.8844 19.7354C26.2237 19.4614 26.5557 19.3701 26.9317 19.3701C27.435 19.3701 28.052 19.5303 28.052 20.3696V21.4654C28.052 21.6807 28.0785 21.9339 28.1666 22.1212H27.3973C27.3413 22.0296 27.3259 21.8744 27.3259 21.7291L27.1622 21.8636ZM28.8651 22.1212H29.5915V18.1714H28.8651V22.1212ZM36.0193 20.6917C35.664 20.8046 35.484 21.0033 35.484 21.3093C35.484 21.5462 35.6359 21.7075 35.8116 21.7075C36.0995 21.7075 36.4767 21.3525 36.4236 20.5627L36.0193 20.6917ZM36.2468 21.8636C36.0514 22.0249 35.7999 22.1863 35.5487 22.1863C35.1237 22.1863 34.768 21.8636 34.768 21.3691C34.768 20.858 35.145 20.5735 35.7789 20.3903L36.4236 20.2022C36.3837 19.9553 36.1611 19.7999 35.9248 19.7999C35.6147 19.7999 35.3958 19.9128 35.2051 20.0741L34.9702 19.7354C35.3086 19.4614 35.6421 19.3701 36.0193 19.3701C36.5202 19.3701 37.1363 19.5303 37.1363 20.3696V21.4654C37.1363 21.6807 37.1635 21.9339 37.2504 22.1212H36.4823C36.4283 22.0296 36.4102 21.8744 36.4102 21.7291L36.2468 21.8636ZM38.6703 19.7514C38.9162 19.4938 39.2605 19.3701 39.6038 19.3701C40.2422 19.3701 40.5803 19.7132 40.5803 20.3903V22.1212H39.8547V20.4717C39.8547 20.0951 39.6855 19.8477 39.3089 19.8477C38.9539 19.8477 38.6758 20.079 38.6758 20.5201V22.1212H37.9503V19.434H38.6703V19.7514ZM32.239 21.6687H32.6317C33.0576 21.6687 33.3805 21.4487 33.3805 21.0301C33.3805 20.589 33.0474 20.4011 32.6273 20.4011H32.239V21.6687ZM32.239 19.939H32.4802C32.9228 19.939 33.2233 19.6598 33.2233 19.3097C33.2233 18.9772 32.9709 18.8325 32.6384 18.8325H32.2387V19.939H32.239ZM31.4703 22.1314V18.3698H32.8513C33.4946 18.3698 33.9483 18.6598 33.9483 19.1703C33.9483 19.7718 33.4517 20.0198 33.1845 20.0893V20.1C33.6594 20.1219 34.1881 20.4437 34.1881 21.0187C34.1881 21.6687 33.6364 22.1314 32.7373 22.1314H31.4703Z" fill="white"/>
<path id="Vector_2" fill-rule="evenodd" clip-rule="evenodd" d="M44 16.2236L44 16.5154L6 16.5154L6 16.2236L44 16.2236Z" fill="white"/>
<path id="Vector_3" fill-rule="evenodd" clip-rule="evenodd" d="M13.4296 14.4836V12.04C13.4296 11.3468 13.0585 11.0178 12.4353 11.0178C11.9172 11.0178 11.4691 11.3258 11.273 11.6339C11.147 11.2488 10.8319 11.0178 10.3348 11.0178C9.8167 11.0178 9.3686 11.3398 9.22857 11.5429V11.1018H8.33936V14.4836H9.22857V12.208C9.3616 12.019 9.62066 11.8089 9.92873 11.8089C10.2928 11.8089 10.4328 12.033 10.4328 12.3481V14.4836H11.3291V12.201C11.4551 12.019 11.7142 11.8089 12.0292 11.8089C12.3933 11.8089 12.5333 12.033 12.5333 12.3481V14.4836H13.4296ZM15.8731 14.5676C14.7599 14.5676 14.0877 13.7554 14.0877 12.7892C14.0877 11.83 14.7599 11.0178 15.8731 11.0178C16.9934 11.0178 17.6656 11.83 17.6656 12.7892C17.6656 13.7554 16.9934 14.5676 15.8731 14.5676ZM15.8731 13.7764C16.4263 13.7764 16.7413 13.3213 16.7413 12.7892C16.7413 12.2641 16.4263 11.8089 15.8731 11.8089C15.32 11.8089 15.0119 12.2641 15.0119 12.7892C15.0119 13.3213 15.32 13.7764 15.8731 13.7764ZM21.4955 14.4836V12.096C21.4955 11.4379 21.1384 11.0178 20.3962 11.0178C19.8431 11.0178 19.43 11.2838 19.2129 11.5429V11.1018H18.3237V14.4836H19.2129V12.208C19.36 12.005 19.633 11.8089 19.9831 11.8089C20.3612 11.8089 20.6062 11.97 20.6062 12.4391V14.4836H21.4955ZM23.946 14.5676C22.8328 14.5676 22.1606 13.7554 22.1606 12.7892C22.1606 11.83 22.8328 11.0178 23.946 11.0178C25.0663 11.0178 25.7385 11.83 25.7385 12.7892C25.7385 13.7554 25.0663 14.5676 23.946 14.5676ZM23.946 13.7764C24.4992 13.7764 24.8142 13.3213 24.8142 12.7892C24.8142 12.2641 24.4992 11.8089 23.946 11.8089C23.3929 11.8089 23.0848 12.2641 23.0848 12.7892C23.0848 13.3213 23.3929 13.7764 23.946 13.7764ZM27.2858 13.3983C27.4329 13.6154 27.7619 13.7764 28.049 13.7764C28.5671 13.7764 28.9102 13.3843 28.9102 12.7962C28.9102 12.208 28.5671 11.8089 28.049 11.8089C27.7619 11.8089 27.4329 11.977 27.2858 12.201V13.3983ZM27.2858 14.4836H26.3966V9.81348H27.2858V11.5359C27.5519 11.1928 27.93 11.0178 28.3291 11.0178C29.1903 11.0178 29.8274 11.6899 29.8274 12.7962C29.8274 13.9234 29.1833 14.5676 28.3291 14.5676C27.923 14.5676 27.5519 14.3856 27.2858 14.0495V14.4836ZM33.4193 14.4836H32.5301V14.1335C32.299 14.4066 31.8999 14.5676 31.4588 14.5676C30.9197 14.5676 30.2825 14.2035 30.2825 13.4473C30.2825 12.6561 30.9197 12.3551 31.4588 12.3551C31.9069 12.3551 32.306 12.5021 32.5301 12.7682V12.3131C32.5301 11.97 32.236 11.7459 31.7879 11.7459C31.4238 11.7459 31.0877 11.879 30.8007 12.145L30.4646 11.5499C30.8777 11.1858 31.4098 11.0178 31.9419 11.0178C32.7121 11.0178 33.4193 11.3258 33.4193 12.2991V14.4836ZM31.8159 13.9655C32.103 13.9655 32.383 13.8674 32.5301 13.6714V13.2513C32.383 13.0552 32.103 12.9572 31.8159 12.9572C31.4658 12.9572 31.1787 13.1393 31.1787 13.4683C31.1787 13.7834 31.4658 13.9655 31.8159 13.9655ZM37.4732 14.4836V12.096C37.4732 11.4379 37.1161 11.0178 36.374 11.0178C35.8208 11.0178 35.4077 11.2838 35.1907 11.5429V11.1018H34.3015V14.4836H35.1907V12.208C35.3377 12.005 35.6108 11.8089 35.9609 11.8089C36.339 11.8089 36.584 11.97 36.584 12.4391V14.4836H37.4732ZM41.6602 14.4836L40.2809 12.6351L41.6182 11.1018H40.5259L39.2446 12.6071V9.81348H38.3554V14.4836H39.2446V13.6154L39.6507 13.1813L40.547 14.4836H41.6602Z" fill="white"/>
</g>
</g>
</g>
<defs>
<clipPath id="clip0_952_3715">
<rect width="50" height="32" fill="white"/>
</clipPath>
</defs>
</svg>
