<svg data-v-fde0c5aa="" xmlns="http://www.w3.org/2000/svg" viewBox="0 0 300 300" class="iconLeft"><!----><defs data-v-fde0c5aa=""><!----></defs><rect data-v-fde0c5aa="" fill="#EADEE5" x="0" y="0" width="300px" height="300px" class="logo-background-square"></rect><defs data-v-fde0c5aa=""><!----></defs><g data-v-fde0c5aa="" id="74d93b55-cf6b-4184-97b4-764a5684524f" fill="#240D1B" transform="matrix(2.7587817304587907,0,0,2.7587817304587907,94.1696293204764,127.46075436716298)"><path d="M6.43 4.37L9.01 4.37L10.39 10.35L10.66 11.81L10.80 11.81L11.05 10.35L12.50 3.63L14.49 3.63L11.99 13.64L9.09 13.64L7.85 8.41L7.55 6.75L7.42 6.75L7.12 8.41L5.89 13.64L2.94 13.64L0.43 3.63L2.95 3.63L4.40 10.35L4.65 11.81L4.79 11.81L5.06 10.35L6.43 4.37ZM21.74 11.87L21.74 12.89L21.74 12.89Q21.37 13.15 20.98 13.32L20.98 13.32L20.98 13.32Q20.60 13.49 20.21 13.60L20.21 13.60L20.21 13.60Q19.83 13.70 19.46 13.74L19.46 13.74L19.46 13.74Q19.09 13.78 18.75 13.78L18.75 13.78L18.75 13.78Q17.88 13.78 17.17 13.55L17.17 13.55L17.17 13.55Q16.47 13.31 15.98 12.87L15.98 12.87L15.98 12.87Q15.48 12.42 15.22 11.77L15.22 11.77L15.22 11.77Q14.96 11.12 14.96 10.29L14.96 10.29L14.96 10.29Q14.96 9.34 15.29 8.60L15.29 8.60L15.29 8.60Q15.61 7.85 16.16 7.33L16.16 7.33L16.16 7.33Q16.71 6.82 17.44 6.54L17.44 6.54L17.44 6.54Q18.16 6.26 18.96 6.26L18.96 6.26L18.96 6.26Q19.64 6.26 20.22 6.47L20.22 6.47L20.22 6.47Q20.79 6.69 21.22 7.10L21.22 7.10L21.22 7.10Q21.64 7.51 21.87 8.12L21.87 8.12L21.87 8.12Q22.10 8.74 22.10 9.54L22.10 9.54L22.10 9.54Q22.10 9.80 22.08 10.01L22.08 10.01L22.08 10.01Q22.05 10.23 22.02 10.38L22.02 10.38L17.40 10.38L17.40 10.38Q17.40 10.86 17.56 11.20L17.56 11.20L17.56 11.20Q17.73 11.54 18.04 11.76L18.04 11.76L18.04 11.76Q18.35 11.98 18.79 12.09L18.79 12.09L18.79 12.09Q19.23 12.19 19.77 12.19L19.77 12.19L19.77 12.19Q19.96 12.19 20.20 12.17L20.20 12.17L20.20 12.17Q20.43 12.16 20.69 12.12L20.69 12.12L20.69 12.12Q20.95 12.09 21.21 12.03L21.21 12.03L21.21 12.03Q21.48 11.97 21.74 11.87L21.74 11.87ZM17.40 9.54L19.95 9.54L19.95 9.54Q19.95 9.07 19.85 8.73L19.85 8.73L19.85 8.73Q19.76 8.39 19.60 8.17L19.60 8.17L19.60 8.17Q19.43 7.94 19.21 7.84L19.21 7.84L19.21 7.84Q18.98 7.73 18.72 7.73L18.72 7.73L18.72 7.73Q18.42 7.73 18.18 7.85L18.18 7.85L18.18 7.85Q17.94 7.98 17.76 8.21L17.76 8.21L17.76 8.21Q17.59 8.44 17.49 8.78L17.49 8.78L17.49 8.78Q17.40 9.11 17.40 9.54L17.40 9.54ZM23.73 13.33L23.73 2.69L26.11 2.69L26.11 7.41L26.11 7.41Q26.38 7.19 26.67 6.98L26.67 6.98L26.67 6.98Q26.96 6.77 27.27 6.61L27.27 6.61L27.27 6.61Q27.58 6.45 27.92 6.36L27.92 6.36L27.92 6.36Q28.25 6.26 28.62 6.26L28.62 6.26L28.62 6.26Q29.26 6.26 29.76 6.55L29.76 6.55L29.76 6.55Q30.27 6.84 30.62 7.32L30.62 7.32L30.62 7.32Q30.97 7.81 31.17 8.43L31.17 8.43L31.17 8.43Q31.36 9.06 31.36 9.73L31.36 9.73L31.36 9.73Q31.36 10.58 31.06 11.32L31.06 11.32L31.06 11.32Q30.75 12.06 30.17 12.61L30.17 12.61L30.17 12.61Q29.58 13.15 28.72 13.47L28.72 13.47L28.72 13.47Q27.86 13.78 26.74 13.78L26.74 13.78L26.74 13.78Q26.46 13.78 26.11 13.76L26.11 13.76L26.11 13.76Q25.76 13.73 25.36 13.68L25.36 13.68L25.36 13.68Q24.97 13.63 24.56 13.55L24.56 13.55L24.56 13.55Q24.14 13.46 23.73 13.33L23.73 13.33ZM26.11 8.35L26.11 12.08L26.11 12.08Q26.39 12.20 26.65 12.26L26.65 12.26L26.65 12.26Q26.91 12.31 27.13 12.31L27.13 12.31L27.13 12.31Q27.58 12.31 27.91 12.11L27.91 12.11L27.91 12.11Q28.25 11.92 28.47 11.59L28.47 11.59L28.47 11.59Q28.69 11.27 28.80 10.85L28.80 10.85L28.80 10.85Q28.92 10.42 28.92 9.98L28.92 9.98L28.92 9.98Q28.92 9.54 28.81 9.16L28.81 9.16L28.81 9.16Q28.70 8.77 28.50 8.48L28.50 8.48L28.50 8.48Q28.29 8.20 28.00 8.03L28.00 8.03L28.00 8.03Q27.70 7.86 27.31 7.86L27.31 7.86L27.31 7.86Q27.06 7.86 26.76 7.96L26.76 7.96L26.76 7.96Q26.46 8.06 26.11 8.35L26.11 8.35ZM33.56 13.64L33.56 7.87L32.10 7.87L32.25 6.84L33.56 6.40L33.56 6.17L33.56 6.17Q33.56 5.41 33.79 4.76L33.79 4.76L33.79 4.76Q34.02 4.10 34.46 3.61L34.46 3.61L34.46 3.61Q34.90 3.12 35.54 2.84L35.54 2.84L35.54 2.84Q36.19 2.56 37.03 2.56L37.03 2.56L37.03 2.56Q37.37 2.56 37.75 2.61L37.75 2.61L37.75 2.61Q38.12 2.66 38.47 2.76L38.47 2.76L38.14 4.19L38.02 4.26L38.02 4.26Q37.84 4.15 37.62 4.09L37.62 4.09L37.62 4.09Q37.39 4.03 37.16 4.03L37.16 4.03L37.16 4.03Q36.83 4.03 36.60 4.16L36.60 4.16L36.60 4.16Q36.36 4.30 36.21 4.55L36.21 4.55L36.21 4.55Q36.07 4.81 36.00 5.16L36.00 5.16L36.00 5.16Q35.93 5.52 35.93 5.97L35.93 5.97L35.93 6.40L38.20 6.40L37.86 7.87L35.93 7.87L35.93 13.64L33.56 13.64ZM39.74 13.64L39.74 2.69L42.11 2.69L42.11 13.64L39.74 13.64ZM44.15 11.27L44.15 6.40L46.52 6.40L46.52 10.92L46.52 10.92Q46.52 11.21 46.59 11.45L46.59 11.45L46.59 11.45Q46.67 11.68 46.81 11.85L46.81 11.85L46.81 11.85Q46.94 12.01 47.13 12.10L47.13 12.10L47.13 12.10Q47.32 12.19 47.54 12.19L47.54 12.19L47.54 12.19Q47.89 12.19 48.21 11.99L48.21 11.99L48.21 11.99Q48.53 11.80 48.82 11.53L48.82 11.53L48.82 6.40L51.19 6.40L51.19 13.64L49.18 13.64L48.89 12.46L48.89 12.46Q48.64 12.68 48.36 12.92L48.36 12.92L48.36 12.92Q48.08 13.15 47.76 13.34L47.76 13.34L47.76 13.34Q47.44 13.54 47.10 13.66L47.10 13.66L47.10 13.66Q46.75 13.78 46.38 13.78L46.38 13.78L46.38 13.78Q45.96 13.78 45.56 13.62L45.56 13.62L45.56 13.62Q45.16 13.47 44.84 13.16L44.84 13.16L44.84 13.16Q44.53 12.84 44.34 12.37L44.34 12.37L44.34 12.37Q44.15 11.90 44.15 11.27L44.15 11.27ZM54.51 13.64L52.42 13.64L55.06 10.01L52.58 6.40L55.32 6.40L56 7.55L56.53 8.74L56.65 8.74L57.18 7.55L57.87 6.40L59.96 6.40L57.46 9.77L60.11 13.64L57.38 13.64L56.54 12.24L55.99 11.12L55.87 11.12L55.34 12.23L54.51 13.64Z"></path></g><defs data-v-fde0c5aa=""><linearGradient data-v-fde0c5aa="" gradientTransform="rotate(25)" id="1a265cc7-e646-473f-8f1e-15b2443bba15" x1="0%" y1="0%" x2="100%" y2="0%"><stop data-v-fde0c5aa="" offset="0%" stop-color="#3C1143" stop-opacity="1"></stop><stop data-v-fde0c5aa="" offset="100%" stop-color="#C25178" stop-opacity="1"></stop></linearGradient></defs><g data-v-fde0c5aa="" id="45148701-70a4-4137-91a5-9bbe215f2e3b" stroke="none" fill="url(#1a265cc7-e646-473f-8f1e-15b2443bba15)" transform="matrix(1.0093542104818223,0,0,1.0093542104818223,36.953450727994095,125.77549894843627)"><path d="M24 47c-6.3 0-11.2-10.1-11.2-23S17.7 1 24 1c6.3 0 11.2 10.1 11.2 23S30.3 47 24 47zm0-44.1c-5 0-9.2 9.7-9.2 21.1S19 45.1 24 45.1c5 0 9.2-9.7 9.2-21.1S29 2.9 24 2.9z"></path><path d="M12.5 38.7c-4.4 0-7.5-1.4-8.8-3.9-2.9-5.5 3.7-14.6 15.1-20.6 5.7-3 11.8-4.8 16.7-4.8 4.4 0 7.5 1.4 8.8 3.9 2.9 5.5-3.7 14.6-15.1 20.6-5.7 3-11.8 4.8-16.7 4.8zm23-27.4c-4.6 0-10.4 1.7-15.8 4.6C9.6 21.2 3 29.4 5.4 33.9c1 1.9 3.5 2.9 7.1 2.9 4.6 0 10.4-1.7 15.8-4.6 10.1-5.3 16.7-13.6 14.3-18-.9-1.9-3.5-2.9-7.1-2.9z"></path><path d="M35.5 38.7c-4.9 0-11-1.7-16.7-4.8-11.4-6-18-15.1-15.1-20.6 1.3-2.5 4.5-3.9 8.8-3.9 4.9 0 11 1.7 16.7 4.8 11.4 6 18 15.1 15.1 20.6-1.3 2.5-4.4 3.9-8.8 3.9zm-23-27.4c-3.6 0-6.1 1-7.1 2.9-2.3 4.4 4.2 12.7 14.3 18 5.5 2.9 11.3 4.6 15.8 4.6 3.6 0 6.1-1 7.1-2.9 2.3-4.4-4.2-12.7-14.3-18-5.5-3-11.2-4.6-15.8-4.6z"></path></g><!----></svg>