<svg width="50" height="32" viewBox="0 0 50 32" fill="none" xmlns="http://www.w3.org/2000/svg">
<g id="AliPay" clip-path="url(#clip0_952_3723)">
<g id="AliPay_2">
<rect id="Rectangle" width="50" height="32" rx="3" fill="#499FE3"/>
<g id="Group">
<path id="Vector" d="M15.8268 18.0913V12.0233C15.8268 10.9874 14.9774 10.1577 13.9416 10.1577H5.88521C4.82969 10.1577 4 10.9874 4 12.0233V19.9765C4 21.0124 4.84933 21.8421 5.88521 21.8421H13.9219C14.9774 21.8421 15.8071 21.0124 15.8071 19.9765V19.8931C15.8071 19.8931 12.7191 18.6314 11.1677 17.8851C10.1319 19.1468 8.78667 19.9127 7.37767 19.9127C6.50871 19.9127 5.78212 19.6034 5.35009 19.1468C5.14389 18.921 4.99661 18.651 4.91315 18.3613C4.91315 18.3417 4.89351 18.2975 4.89351 18.2779C4.89351 18.2779 4.87387 18.2386 4.87387 18.1748C4.77078 17.6151 4.9377 17.0358 5.35009 16.5399C5.60047 16.2503 6.01286 15.9606 6.65599 15.8134C7.67224 15.563 9.2678 15.9606 10.7553 16.4565C11.0254 15.9606 11.2512 15.4206 11.4181 14.8413H6.818V14.3847H9.19907V13.555H6.31724V13.0985H9.19416V11.9202C9.19416 11.9202 9.19416 11.714 9.40035 11.714H10.559V13.1034H13.4261V13.5599H10.5688V14.3896H12.886C12.6602 15.3028 12.3264 16.1276 11.8943 16.8542C12.5964 17.1045 13.2395 17.35 13.7157 17.4973C15.434 18.052 15.8268 18.0913 15.8268 18.0913ZM6.87691 16.4958C6.58726 16.5154 6.02759 16.6627 5.71829 16.9082C4.80514 17.6937 5.34518 19.1223 7.19112 19.1223C8.26628 19.1223 9.32671 18.4399 10.1711 17.3598C8.96832 16.81 7.97662 16.3927 6.87691 16.4958Z" fill="white"/>
<path id="Vector_2" d="M22.744 18.877H24.3395L21.3595 12.3721H20.9226C20.8588 12.3721 20.7753 12.3917 20.7164 12.4359C20.6575 12.4801 20.6133 12.539 20.5691 12.6028L17.5449 18.877H18.6201L19.1601 17.8215H22.2481L22.744 18.877ZM20.736 14.488L22.0419 17.2864H19.3663L20.736 14.488ZM26.4113 18.877H24.963V12.6666C24.963 12.6028 24.9827 12.5194 25.0465 12.4604C25.1103 12.3966 25.1692 12.377 25.2527 12.377H26.431V18.8819H26.4113V18.877ZM27.673 14.3653C27.673 14.3015 27.6927 14.218 27.7565 14.1787C27.8203 14.1149 27.8792 14.0953 27.9627 14.0953H29.1409V18.8819H27.6681V14.3653H27.673ZM30.3634 14.3653C30.3634 14.3015 30.383 14.218 30.4469 14.1591C30.5107 14.0953 30.5696 14.0756 30.653 14.0756H31.8313V14.4488C31.9982 14.3015 32.1848 14.1984 32.4106 14.1149C32.6168 14.0315 32.8868 13.9922 33.1765 13.9922C33.4858 13.9922 33.7558 14.056 34.0258 14.1787C34.2762 14.3015 34.502 14.4684 34.6689 14.6746C34.8555 14.8808 34.9782 15.1115 35.0813 15.4012C35.1844 15.6712 35.2286 15.9608 35.2286 16.2701C35.2286 16.6629 35.1648 17.0164 35.0617 17.3453C34.939 17.6791 34.772 17.9688 34.5658 18.2143C34.3596 18.4646 34.0896 18.6512 33.7803 18.7936C33.471 18.9409 33.1372 18.9998 32.7445 18.9998C32.5579 18.9998 32.391 18.9998 32.2486 18.9801C32.1013 18.9605 31.9786 18.9409 31.8362 18.877V20.8015H30.3634V14.3653ZM31.8362 17.5319C31.8362 17.6546 31.8559 17.7577 31.9 17.8657C31.9393 17.9688 32.0031 18.0523 32.0866 18.1357C32.1701 18.2192 32.2535 18.283 32.3762 18.3223C32.4793 18.3615 32.6021 18.3861 32.7494 18.3861C32.8721 18.3861 32.9997 18.3468 33.1028 18.2634C33.2059 18.1799 33.309 18.0768 33.3925 17.9099C33.476 17.7626 33.5398 17.576 33.5987 17.3699C33.638 17.1637 33.6821 16.9329 33.6821 16.7071C33.6821 16.3978 33.6625 16.1278 33.6183 15.897C33.5791 15.6712 33.5152 15.4601 33.4318 15.3177C33.3483 15.1508 33.2649 15.0477 33.1618 14.9642C33.0587 14.8808 32.9359 14.8415 32.8083 14.8415C32.7248 14.8415 32.6217 14.8611 32.5383 14.8808C32.4548 14.9201 32.3713 14.9642 32.2879 15.0035C32.2044 15.0673 32.1406 15.1262 32.062 15.1901C31.9982 15.2735 31.9148 15.3374 31.8559 15.4159V17.5269H31.8362V17.5319ZM39.004 14.1345C38.3019 13.9284 37.4084 13.9087 36.2056 14.218C36.2449 14.3407 36.289 14.5518 36.3283 14.6746C38.2528 14.3407 38.6063 14.5911 38.6063 15.4208V15.6712C38.2528 15.6516 37.8404 15.5877 37.5066 15.5877C36.2007 15.5681 35.7245 16.604 35.7245 17.2668C35.7245 18.4057 36.8242 19.4809 38.6014 18.6954V18.8819H40.0938V15.3815C40.1184 14.6942 39.5391 14.2818 39.004 14.1345ZM36.9322 17.2864C36.9322 16.7267 37.3888 16.3143 37.9484 16.2701C38.3019 16.2505 38.5081 16.3094 38.6308 16.3929V18.0277C38.4443 18.1946 38.2184 18.2977 37.9484 18.2977C37.3642 18.2977 36.9322 17.8412 36.9322 17.2864ZM40.5161 13.9922H42.0674L43.5992 16.9329L44.8609 14.1787C44.8805 14.1149 44.9247 14.0756 44.9836 14.0315C45.0474 13.9922 45.1063 13.9922 45.1702 13.9922H45.9999L43.5746 19.314C42.9953 20.7623 41.5667 20.5561 41.3163 20.5561V19.746C41.5028 19.746 42.1656 19.746 42.4553 19.4367C42.5191 19.3729 42.578 19.2305 42.6222 19.1471C42.6664 19.0636 42.7056 18.9801 42.7449 18.8967L42.9118 18.5039L40.5161 13.9922Z" fill="white"/>
<path id="Vector_3" d="M29.2048 12.6665C29.2048 13.0592 28.8513 13.3685 28.4193 13.3685C27.9824 13.3685 27.6338 13.0592 27.6338 12.6665C27.6338 12.2737 27.9873 11.9644 28.4193 11.9644C28.8513 11.9595 29.2048 12.2737 29.2048 12.6665Z" fill="white"/>
</g>
</g>
</g>
<defs>
<clipPath id="clip0_952_3723">
<rect width="50" height="32" fill="white"/>
</clipPath>
</defs>
</svg>
