<svg width="50" height="32" viewBox="0 0 50 32" fill="none" xmlns="http://www.w3.org/2000/svg">
<g id="ApplePay" clip-path="url(#clip0_952_3720)">
<g id="ApplePay_2">
<rect id="Rectangle" width="50" height="32" rx="3" fill="black"/>
<path id="Path" d="M12.9433 10.1933C12.498 10.7219 11.7854 11.1388 11.0728 11.0792C10.9837 10.3645 11.3326 9.60517 11.7408 9.13615C12.1862 8.59269 12.9656 8.20556 13.5965 8.17578C13.6707 8.92026 13.3813 9.64984 12.9433 10.1933ZM13.5891 11.2207C12.5573 11.1611 11.674 11.8088 11.1841 11.8088C10.6868 11.8088 9.93711 11.2505 9.12061 11.2653C8.05916 11.2802 7.07194 11.8833 6.53008 12.8436C5.41667 14.7644 6.2406 17.6083 7.31689 19.1717C7.8439 19.9459 8.47484 20.7946 9.30618 20.7648C10.093 20.7351 10.4047 20.2512 11.3549 20.2512C12.3124 20.2512 12.587 20.7648 13.4184 20.75C14.2794 20.7351 14.8213 19.9757 15.3483 19.2014C15.9495 18.323 16.1945 17.4668 16.2093 17.4222C16.1945 17.4073 14.5466 16.7745 14.5318 14.8686C14.5169 13.2754 15.8308 12.5161 15.8901 12.4714C15.1479 11.3696 13.9899 11.2505 13.5891 11.2207ZM19.5495 9.06171V20.6681H21.3458V16.7H23.8325C26.1038 16.7 27.6997 15.1366 27.6997 12.8734C27.6997 10.6102 26.1335 9.06171 23.8918 9.06171H19.5495ZM21.3458 10.5804H23.4168C24.9756 10.5804 25.8663 11.4142 25.8663 12.8809C25.8663 14.3475 24.9756 15.1887 23.4094 15.1887H21.3458V10.5804ZM30.9805 20.7574C32.1088 20.7574 33.1554 20.1842 33.6305 19.2759H33.6676V20.6681H35.3303V14.8909C35.3303 13.2159 33.9942 12.1364 31.9381 12.1364C30.0304 12.1364 28.6201 13.2308 28.5682 14.7346H30.1863C30.3199 14.0199 30.9805 13.5509 31.8861 13.5509C32.9847 13.5509 33.6008 14.0646 33.6008 15.0101V15.6503L31.3591 15.7843C29.2733 15.9109 28.1451 16.767 28.1451 18.256C28.1451 19.7598 29.3104 20.7574 30.9805 20.7574ZM31.463 19.3801C30.5055 19.3801 29.8968 18.9185 29.8968 18.2113C29.8968 17.4817 30.4832 17.0574 31.604 16.9904L33.6008 16.8638V17.5189C33.6008 18.6059 32.6803 19.3801 31.463 19.3801ZM37.5497 23.8246C39.3014 23.8246 40.1253 23.1546 40.8453 21.1222L44 12.2481H42.174L40.0585 19.1047H40.0214L37.9059 12.2481H36.028L39.0713 20.6978L38.908 21.2115C38.6334 22.0826 38.188 22.4176 37.3938 22.4176C37.2527 22.4176 36.9781 22.4027 36.8668 22.3878V23.78C36.9707 23.8097 37.416 23.8246 37.5497 23.8246Z" fill="white"/>
</g>
</g>
<defs>
<clipPath id="clip0_952_3720">
<rect width="50" height="32" fill="white"/>
</clipPath>
</defs>
</svg>
