<svg width="50" height="32" viewBox="0 0 50 32" fill="none" xmlns="http://www.w3.org/2000/svg">
<g id="American Express" clip-path="url(#clip0_952_3721)">
<g id="American Express_2">
<rect id="Rectangle" width="50" height="32" rx="3" fill="#306FC8"/>
<g id="Mask Group">
<mask id="mask0_952_3721" style="mask-type:alpha" maskUnits="userSpaceOnUse" x="0" y="0" width="50" height="32">
<rect id="Rectangle_2" width="50" height="32" rx="3" fill="url(#paint0_linear_952_3721)"/>
</mask>
<g mask="url(#mask0_952_3721)">
<g id="Group">
<path id="Vector" d="M21.6395 23.4348V18.7764L19.4858 21.0706L21.6395 23.4348Z" fill="white"/>
<path id="Vector_2" d="M12.6133 19.3608V20.4095L15.6927 20.4031V21.6042H12.6133V22.7545H16.0656L17.6728 21.0513L16.1299 19.3608H12.6133Z" fill="white"/>
<path id="Vector_3" d="M25.6964 10.5336C25.8764 10.4319 25.9857 10.2286 25.9857 9.98073C25.9857 9.73287 25.87 9.55492 25.6964 9.45959C25.5292 9.36427 25.2785 9.35791 25.0278 9.35791H23.292V10.6544H25.0085C25.2785 10.6544 25.5035 10.6417 25.6964 10.5336Z" fill="white"/>
<path id="Vector_4" d="M2.58447 11.4486H4.50671L3.54238 9.13525L2.58447 11.4486Z" fill="white"/>
<path id="Vector_5" d="M24.8801 19.3608H23.0479V20.8225H24.8672C25.4008 20.8225 25.7351 20.5683 25.7351 20.0663C25.7287 19.5642 25.3815 19.3608 24.8801 19.3608Z" fill="white"/>
<path id="Vector_6" d="M2.94443 13.8065H4.15306L4.69952 15.1093H9.42475V14.1179L9.84905 15.1093H12.292L12.7163 14.1052V15.1093H24.4555V12.9867H24.6869C24.8541 12.9867 24.8991 13.0057 24.8991 13.2663V15.1093H30.9679V14.6072C31.4501 14.8678 32.2087 15.1093 33.2245 15.1093H35.7768L36.3296 13.8065H37.5383L38.0847 15.1093H42.99V13.8764L43.7421 15.1093H47.6831V7H43.7871V7.95329L43.2278 7H39.2226V7.95329L38.734 7H33.3209C32.408 7 31.6044 7.12075 30.9679 7.46393V7H27.2392V7.46393C26.802 7.11439 26.2556 7 25.6384 7H11.9899L11.0641 9.09088L10.1384 7H5.84386V7.95329L5.35526 7H1.6908L0 10.8449V15.1093H2.39797L2.94443 13.8065ZM31.2315 8.82396C31.6816 8.36003 32.4016 8.14395 33.3723 8.14395H34.716V9.38958H33.3981C32.8773 9.38958 32.588 9.46584 32.3116 9.73912C32.0673 9.98062 31.9001 10.4446 31.9001 11.0547C31.9001 11.6775 32.0223 12.116 32.2987 12.421C32.5045 12.6498 32.8966 12.7197 33.2759 12.7197H33.906L35.886 8.14395H37.9819L40.367 13.6476V8.14395H42.5142L44.9829 12.1922V8.14395H46.4294V13.9654H44.4236L41.7685 9.60566V13.9654H38.9076L38.3676 12.6625H35.4425L34.9024 13.9654H33.2695C32.5816 13.9654 31.7137 13.8065 31.2251 13.3171C30.7301 12.8214 30.4794 12.1541 30.4794 11.0991C30.4794 10.2348 30.6336 9.44677 31.2315 8.82396ZM28.3514 8.14395H29.7915V13.9654H28.3514V8.14395ZM21.8904 8.14395H25.1305C25.8441 8.14395 26.3713 8.16937 26.8213 8.42358C27.2713 8.68414 27.5478 9.06546 27.5478 9.7137C27.5478 10.6352 26.9177 11.1119 26.5449 11.258C26.8535 11.3724 27.117 11.5821 27.2392 11.7537C27.4385 12.0334 27.4706 12.3003 27.4706 12.8087V13.9654H26.0563V13.2282C26.0563 12.885 26.0884 12.3765 25.8248 12.1033C25.6255 11.8935 25.317 11.8491 24.8026 11.8491H23.2919V13.9654H21.8839V8.14395H21.8904ZM16.2201 8.14395H20.9132V9.3578H17.6216V10.4064H20.8296V11.6012H17.6216V12.7515L20.9132 12.7452V13.959H16.2201V8.14395ZM1.54293 13.9654H0.0128578L2.52655 8.14395H4.62237L7.00749 13.6476V8.14395H9.30903L11.1413 12.0906L12.8321 8.14395H15.1722V13.9654H13.7321V9.40864L11.6941 13.9654H10.4598L8.41541 9.40229V13.9654H5.54813L5.0081 12.6625H2.08296L1.54293 13.9654Z" fill="white"/>
<path id="Vector_7" d="M36.9018 9.13525L35.9438 11.4486H37.8597L36.9018 9.13525Z" fill="white"/>
<path id="Vector_8" d="M46.886 19.4943C46.7381 19.5896 46.6738 19.7294 46.6738 19.9137C46.6738 20.1298 46.8024 20.2823 46.9824 20.3459C47.1238 20.3967 47.2846 20.4094 47.5224 20.4094L48.2746 20.4285C49.0525 20.4476 49.5668 20.5747 49.8818 20.8988C49.9268 20.9433 49.9654 20.9877 49.9976 21.0322V19.3926H47.4453C47.1946 19.3926 47.021 19.4053 46.886 19.4943Z" fill="white"/>
<path id="Vector_9" d="M48.1008 23.9619H45.3878V22.7163H48.0879C48.3515 22.7163 48.5379 22.6782 48.6536 22.5765C48.7501 22.4875 48.8208 22.3604 48.8208 22.1952C48.8208 22.0236 48.7501 21.8901 48.6472 21.8075C48.5444 21.7185 48.3965 21.6804 48.1586 21.6804C46.8471 21.6423 45.1949 21.7249 45.1949 19.8755C45.1949 19.043 45.7285 18.1469 47.2071 18.1469H50.0037V17.0029H47.4C46.6221 17.0029 46.0371 17.1809 45.6385 17.4669V17.0029H41.8005C41.1897 17.0029 40.4568 17.1491 40.1161 17.4669V17.0029H33.2436V17.4669C32.6971 17.0855 31.7778 17.0029 31.3407 17.0029H26.8083V17.4669C26.3775 17.0538 25.4261 17.0029 24.841 17.0029H19.7622L18.5986 18.2486L17.5185 17.0029H9.94531V25.1122H17.3835L18.5729 23.8475L19.7044 25.1059L24.2817 25.1122V23.1993H24.7382C25.3425 23.1993 26.0625 23.1866 26.6861 22.9197V25.1122H30.4792V22.9896H30.6656C30.8971 22.9896 30.9163 23.0086 30.9163 23.2247V25.1122H42.3919C43.1119 25.1122 43.8898 24.9279 44.3141 24.5975V25.1122H47.9529C48.7051 25.1122 49.4508 25.0042 50.0166 24.7373V23.2311C49.6501 23.7268 49.0072 23.9619 48.1008 23.9619ZM24.7896 22.0172H23.041V23.9619H20.3022L18.5793 22.049L16.7792 23.9683H11.2054V18.1469H16.8628L18.5857 20.0598L20.3794 18.1469H24.8796C25.9854 18.1469 27.239 18.4646 27.239 20.0725C27.2326 21.6804 26.0175 22.0172 24.7896 22.0172ZM33.25 21.7567C33.4493 22.0363 33.4815 22.3032 33.4879 22.8116V23.9619H32.0735V23.2247C32.0735 22.8815 32.1057 22.3731 31.8421 22.0998C31.6364 21.8901 31.3342 21.8456 30.8199 21.8456H29.3091V23.9619H27.9012V18.1405H31.1414C31.855 18.1405 32.3757 18.1659 32.8322 18.4265C33.2822 18.6871 33.5586 19.0684 33.5586 19.7166C33.5586 20.6381 32.9286 21.1148 32.5621 21.261C32.8707 21.3753 33.1343 21.5851 33.25 21.7567ZM39.0296 19.3607H35.7444V20.4093H38.9589V21.6105H35.7444V22.7608H39.036V23.9683H34.3429V18.1469H39.036V19.3607H39.0296ZM42.6041 23.9619H39.8654V22.7163H42.5912C42.8548 22.7163 43.0412 22.6782 43.1569 22.5765C43.2534 22.4875 43.3241 22.3604 43.3241 22.1952C43.3241 22.0236 43.2534 21.8901 43.1505 21.8075C43.0477 21.7185 42.8998 21.6804 42.6619 21.6804C41.3504 21.6423 39.6982 21.7249 39.6982 19.8755C39.6982 19.0366 40.2318 18.1469 41.7104 18.1469H44.5263V19.3925H41.9483C41.6912 19.3925 41.524 19.3989 41.3826 19.4878C41.2347 19.5832 41.1768 19.723 41.1768 19.9073C41.1768 20.1234 41.3054 20.2759 41.4854 20.3394C41.6333 20.3903 41.7876 20.403 42.0255 20.403L42.7776 20.4221C43.5555 20.4411 44.0699 20.5682 44.3849 20.8923C44.6613 21.1847 44.8092 21.5215 44.8092 22.1253C44.8156 23.3709 44.0313 23.9619 42.6041 23.9619Z" fill="white"/>
<path id="Vector_10" d="M31.714 19.4562C31.5468 19.3672 31.2897 19.3608 31.0454 19.3608H29.3096V20.6573H31.0261C31.2961 20.6573 31.5275 20.651 31.714 20.5429C31.894 20.4412 32.0033 20.2379 32.0033 19.99C31.9968 19.7358 31.8876 19.5579 31.714 19.4562Z" fill="white"/>
</g>
</g>
</g>
</g>
</g>
<defs>
<linearGradient id="paint0_linear_952_3721" x1="25" y1="0" x2="25" y2="32" gradientUnits="userSpaceOnUse">
<stop stop-color="#1B8ABA"/>
<stop offset="1" stop-color="#005D9C"/>
</linearGradient>
<clipPath id="clip0_952_3721">
<rect width="50" height="32" fill="white"/>
</clipPath>
</defs>
</svg>
