<svg width="50" height="32" viewBox="0 0 50 32" fill="none" xmlns="http://www.w3.org/2000/svg">
<g id="Bitcoin" clip-path="url(#clip0_952_3725)">
<g id="Bitcoin_2">
<rect id="Rectangle" width="50" height="32" rx="3" fill="#F7931A"/>
<g id="Group">
<g id="Group_2">
<path id="Vector" d="M14.3311 22.5309C14.6312 22.5309 14.8906 22.5847 15.1085 22.6903C15.3274 22.797 15.5081 22.9406 15.653 23.1213C15.796 23.3029 15.9024 23.5151 15.9711 23.7584C16.0394 24.0023 16.0736 24.2646 16.0736 24.5453C16.0736 24.9765 15.9946 25.3839 15.8351 25.7679C15.6756 26.1525 15.4592 26.4861 15.1839 26.7707C14.9088 27.0549 14.584 27.2789 14.2095 27.4444C13.8355 27.6101 13.429 27.6929 12.9924 27.6929C12.936 27.6929 12.8367 27.6913 12.6965 27.6884C12.5563 27.6855 12.3952 27.671 12.2148 27.6466C12.0332 27.6213 11.8412 27.5838 11.6384 27.5336C11.4357 27.4843 11.2433 27.4153 11.062 27.3276L12.6828 20.5175L14.1344 20.2925L13.5541 22.7092C13.6783 22.6532 13.8035 22.6098 13.9284 22.5782C14.0534 22.5471 14.1876 22.5309 14.3311 22.5309ZM13.1134 26.5413C13.332 26.5413 13.538 26.4875 13.7315 26.3819C13.9256 26.2762 14.0931 26.1334 14.2334 25.9556C14.3737 25.7771 14.4848 25.5759 14.5657 25.3512C14.6467 25.1264 14.6877 24.892 14.6877 24.648C14.6877 24.3483 14.6376 24.1145 14.5378 23.9455C14.4379 23.7773 14.2532 23.6926 13.985 23.6926C13.8971 23.6926 13.7838 23.7094 13.6434 23.7393C13.5025 23.7711 13.3764 23.8372 13.2634 23.9365L12.6455 26.503C12.6828 26.5096 12.7157 26.5158 12.7438 26.5217C12.7714 26.5281 12.8018 26.5326 12.8321 26.5357C12.8641 26.5393 12.9008 26.5412 12.9451 26.5412C12.9894 26.5412 13.0448 26.5413 13.1134 26.5413Z" fill="white"/>
<path id="Vector_2" d="M17.5789 27.563H16.1924L17.3633 22.6358H18.7593L17.5789 27.563ZM18.2536 22.0355C18.0601 22.0355 17.8846 21.9779 17.7289 21.8625C17.572 21.7477 17.4942 21.5711 17.4942 21.333C17.4942 21.2021 17.5208 21.0793 17.5736 20.9634C17.6271 20.8477 17.6971 20.7481 17.7848 20.6634C17.8724 20.5794 17.9738 20.5124 18.089 20.4618C18.2049 20.4121 18.3282 20.3872 18.4596 20.3872C18.653 20.3872 18.8276 20.4448 18.9838 20.5602C19.1395 20.6763 19.2178 20.8529 19.2178 21.0897C19.2178 21.2211 19.1913 21.3444 19.1381 21.46C19.0853 21.5757 19.0153 21.6753 18.9276 21.76C18.8407 21.8441 18.7384 21.9109 18.6234 21.961C18.5074 22.0115 18.3845 22.0355 18.2536 22.0355Z" fill="white"/>
<path id="Vector_3" d="M19.9745 21.4081L21.4267 21.1831L21.0701 22.6354H22.6254L22.3445 23.778H20.7986L20.3868 25.5015C20.3489 25.6452 20.3274 25.7793 20.3214 25.904C20.3145 26.0293 20.3304 26.1369 20.3679 26.2274C20.4051 26.3182 20.4721 26.3882 20.5692 26.4377C20.6659 26.488 20.8044 26.5134 20.986 26.5134C21.1356 26.5134 21.2813 26.4992 21.4222 26.4709C21.5623 26.4432 21.7042 26.4045 21.8478 26.354L21.9513 27.4223C21.7639 27.491 21.561 27.5501 21.3424 27.5999C21.1234 27.6503 20.8642 27.6746 20.5646 27.6746C20.1339 27.6746 19.7999 27.6106 19.562 27.4833C19.3244 27.355 19.1565 27.1798 19.0559 26.9579C18.9568 26.7369 18.9125 26.482 18.9249 26.1949C18.9377 25.9072 18.9811 25.6047 19.0559 25.2861L19.9745 21.4081Z" fill="white"/>
<path id="Vector_4" d="M22.5645 25.5949C22.5645 25.1705 22.6332 24.7703 22.7705 24.3956C22.9075 24.0206 23.105 23.6927 23.3612 23.4113C23.6165 23.1312 23.9275 22.9094 24.2936 22.7465C24.658 22.5846 25.0659 22.5029 25.5155 22.5029C25.7969 22.5029 26.0483 22.5295 26.2695 22.5829C26.4915 22.6366 26.6925 22.7062 26.8742 22.7934L26.396 23.8807C26.2711 23.83 26.1414 23.7854 26.0074 23.7449C25.8732 23.7036 25.7094 23.6837 25.5156 23.6837C25.0528 23.6837 24.687 23.8432 24.4147 24.1612C24.1435 24.4794 24.0068 24.9077 24.0068 25.445C24.0068 25.7634 24.0756 26.0209 24.2134 26.2179C24.3506 26.4149 24.604 26.5128 24.972 26.5128C25.1536 26.5128 25.3288 26.4939 25.4967 26.4569C25.6658 26.4194 25.8151 26.3722 25.9466 26.3164L26.0501 27.431C25.8748 27.499 25.6814 27.5605 25.4693 27.6142C25.2567 27.6662 25.0036 27.6931 24.7101 27.6931C24.3227 27.6931 23.9948 27.6365 23.7266 27.5248C23.4582 27.4115 23.2365 27.261 23.0618 27.0704C22.8862 26.8793 22.7602 26.6562 22.6822 26.4001C22.6042 26.1442 22.5645 25.8754 22.5645 25.5949Z" fill="white"/>
<path id="Vector_5" d="M28.7236 27.6931C28.3927 27.6931 28.1053 27.6427 27.8614 27.5429C27.6183 27.443 27.4169 27.303 27.2576 27.1214C27.0981 26.9407 26.9788 26.7266 26.897 26.4799C26.8152 26.2333 26.7759 25.9602 26.7759 25.6609C26.7759 25.2856 26.8361 24.9104 26.9579 24.5362C27.0792 24.1612 27.259 23.8242 27.4971 23.5248C27.7333 23.2248 28.0246 22.9796 28.3677 22.7884C28.7104 22.5985 29.1046 22.5029 29.5474 22.5029C29.8723 22.5029 30.1583 22.5535 30.4055 22.6533C30.6515 22.7529 30.8541 22.8941 31.0144 23.0748C31.1728 23.2564 31.2932 23.4696 31.3742 23.7166C31.4557 23.9628 31.496 24.2366 31.496 24.536C31.496 24.9102 31.4365 25.2855 31.3186 25.6608C31.2005 26.0343 31.0252 26.3721 30.7939 26.6722C30.563 26.9717 30.2743 27.2168 29.9275 27.4072C29.5812 27.5976 29.1796 27.6931 28.7236 27.6931ZM29.4166 23.6838C29.2111 23.6838 29.0293 23.7435 28.8738 23.8613C28.7176 23.9806 28.5864 24.1305 28.4807 24.3113C28.3738 24.4929 28.2946 24.6909 28.2411 24.9062C28.188 25.1219 28.1619 25.3258 28.1619 25.5196C28.1619 25.8322 28.2124 26.0757 28.3115 26.251C28.412 26.4253 28.5926 26.513 28.855 26.513C29.0613 26.513 29.2421 26.4537 29.3986 26.3346C29.5538 26.2163 29.6851 26.0662 29.7916 25.8851C29.8978 25.7044 29.9777 25.5058 30.0313 25.2902C30.0837 25.0752 30.1104 24.8701 30.1104 24.6767C30.1104 24.3649 30.0602 24.1208 29.9601 23.9458C29.8602 23.7715 29.6788 23.6838 29.4166 23.6838Z" fill="white"/>
<path id="Vector_6" d="M33.0029 27.563H31.6152L32.7862 22.6358H34.1829L33.0029 27.563ZM33.6766 22.0355C33.4832 22.0355 33.3078 21.9779 33.1524 21.8625C32.9962 21.7477 32.9178 21.5711 32.9178 21.333C32.9178 21.2021 32.9447 21.0793 32.9976 20.9634C33.0505 20.8477 33.1209 20.7481 33.2086 20.6634C33.2957 20.5794 33.398 20.5124 33.513 20.4618C33.6282 20.4121 33.7515 20.3872 33.8825 20.3872C34.0763 20.3872 34.2515 20.4448 34.4074 20.5602C34.5634 20.6763 34.6422 20.8529 34.6422 21.0897C34.6422 21.2211 34.6142 21.3444 34.5618 21.46C34.5094 21.5757 34.439 21.6753 34.3516 21.76C34.2637 21.8441 34.1626 21.9109 34.0474 21.961C33.9313 22.0115 33.8082 22.0355 33.6766 22.0355Z" fill="white"/>
<path id="Vector_7" d="M35.1859 22.8596C35.2912 22.8288 35.4087 22.7918 35.5365 22.7516C35.6648 22.7113 35.8081 22.6738 35.9682 22.6401C36.1265 22.6053 36.3052 22.577 36.5018 22.5552C36.6983 22.5328 36.9222 22.522 37.171 22.522C37.9023 22.522 38.4064 22.7349 38.6847 23.1595C38.9627 23.5842 39.0108 24.1653 38.8304 24.9019L38.1926 27.5623H36.7969L37.4151 24.9579C37.4528 24.7952 37.4824 24.638 37.5043 24.4844C37.5264 24.3322 37.5251 24.198 37.4993 24.0819C37.4746 23.9671 37.4166 23.8732 37.3265 23.8005C37.235 23.7289 37.0968 23.6929 36.9093 23.6929C36.7285 23.6929 36.5445 23.7123 36.3568 23.7498L35.448 27.5621H34.0518L35.1859 22.8596Z" fill="white"/>
</g>
<g id="Bitcoin_3">
<g id="Group_3">
<path id="Vector_8" d="M31.3017 12.6724C30.434 16.1526 26.9087 18.2706 23.4277 17.4028C19.9481 16.5351 17.8298 13.01 18.698 9.53004C19.5654 6.04944 23.0907 3.93123 26.5707 4.79889C30.0515 5.66656 32.1695 9.19203 31.3017 12.6724Z" fill="white"/>
<path id="Vector_9" d="M27.8645 10.1754C27.9938 9.31098 27.3356 8.84629 26.4355 8.5363L26.7275 7.36534L26.0146 7.1877L25.7304 8.32781C25.543 8.28111 25.3505 8.23706 25.1592 8.19341L25.4455 7.0458L24.7331 6.86816L24.4409 8.03872C24.2858 8.0034 24.1335 7.96848 23.9857 7.93173L23.9865 7.92808L23.0034 7.68264L22.8138 8.44393C22.8138 8.44393 23.3427 8.56513 23.3315 8.57264C23.6203 8.64471 23.6724 8.83574 23.6637 8.98718L23.3311 10.3212C23.351 10.3262 23.3768 10.3335 23.4052 10.3449C23.3815 10.339 23.3561 10.3325 23.3299 10.3262L22.8637 12.1949C22.8284 12.2826 22.7389 12.4142 22.5371 12.3643C22.5442 12.3746 22.0189 12.2349 22.0189 12.2349L21.665 13.0508L22.5927 13.2821C22.7653 13.3253 22.9344 13.3706 23.1009 13.4132L22.8059 14.5976L23.5179 14.7752L23.8101 13.6034C24.0046 13.6562 24.1934 13.7049 24.3782 13.7508L24.087 14.9171L24.7999 15.0947L25.0949 13.9126C26.3105 14.1426 27.2245 14.0498 27.6093 12.9505C27.9193 12.0654 27.5938 11.5549 26.9543 11.2219C27.42 11.1145 27.7709 10.8082 27.8645 10.1754ZM26.2357 12.4591C26.0154 13.3442 24.525 12.8657 24.0418 12.7457L24.4332 11.1766C24.9164 11.2972 26.466 11.536 26.2357 12.4591ZM26.4562 10.1626C26.2552 10.9677 25.0147 10.5587 24.6123 10.4584L24.9672 9.0353C25.3696 9.13558 26.6656 9.32276 26.4562 10.1626Z" fill="#F7931A"/>
</g>
</g>
</g>
</g>
</g>
<defs>
<clipPath id="clip0_952_3725">
<rect width="50" height="32" fill="white"/>
</clipPath>
</defs>
</svg>
