<svg width="50" height="32" viewBox="0 0 50 32" fill="none" xmlns="http://www.w3.org/2000/svg">
<g id="Discover">
<g id="Discover_2">
<rect id="Rectangle" width="50" height="32" rx="3" fill="#F8F8F8"/>
<g id="Mask Group">
<mask id="mask0_952_3716" style="mask-type:alpha" maskUnits="userSpaceOnUse" x="0" y="0" width="50" height="32">
<rect id="Rectangle_2" width="50" height="32" rx="3" fill="#F9F9F9"/>
</mask>
<g mask="url(#mask0_952_3716)">
<path id="Vector" d="M14.4531 32H48.3594C49.2578 32 50 31.2578 50 30.3594V18.875C46.7578 20.9453 34.4922 28.0547 14.4531 32Z" fill="#F58220"/>
</g>
</g>
<g id="Group">
<path id="Vector_2" d="M7.72173 12.9727H6V18.9858H7.71261C8.62327 18.9858 9.28087 18.771 9.85808 18.2916C10.544 17.724 10.9497 16.8684 10.9497 15.9834C10.9499 14.209 9.62393 12.9727 7.72173 12.9727ZM9.09195 17.4899C8.72335 17.8226 8.24477 17.9678 7.48691 17.9678H7.17218V13.9916H7.48691C8.24477 13.9916 8.70462 14.1271 9.09195 14.4778C9.49763 14.8389 9.74158 15.3988 9.74158 15.9746C9.74158 16.552 9.49763 17.1288 9.09195 17.4899Z" fill="#231F20"/>
<path id="Vector_3" d="M12.6627 12.9727H11.4897V18.9858H12.6627V12.9727Z" fill="#231F20"/>
<path id="Vector_4" d="M15.5306 15.2799C14.8268 15.0196 14.6201 14.8478 14.6201 14.5229C14.6201 14.1441 14.9883 13.8564 15.4938 13.8564C15.8453 13.8564 16.134 14.0008 16.4396 14.3433L17.0533 13.5398C16.549 13.0986 15.9456 12.873 15.2864 12.873C14.2224 12.873 13.4109 13.6119 13.4109 14.596C13.4109 15.4245 13.7887 15.8486 14.8903 16.245C15.3496 16.4069 15.5832 16.5147 15.7012 16.5873C15.9355 16.7403 16.0529 16.9571 16.0529 17.2095C16.0529 17.6967 15.6655 18.0576 15.1422 18.0576C14.5828 18.0576 14.1321 17.7779 13.8622 17.2557L13.1045 17.9854C13.6449 18.7786 14.2939 19.1302 15.1864 19.1302C16.4052 19.1302 17.2603 18.3198 17.2603 17.1558C17.2601 16.2004 16.8649 15.7678 15.5306 15.2799Z" fill="#231F20"/>
<path id="Vector_5" d="M17.6299 15.9833C17.6299 17.7508 19.0179 19.1213 20.8039 19.1213C21.3088 19.1213 21.7412 19.022 22.2744 18.7709V17.3902C21.8055 17.8596 21.3902 18.0488 20.8585 18.0488C19.6772 18.0488 18.8389 17.1923 18.8389 15.9746C18.8389 14.8202 19.7038 13.9093 20.804 13.9093C21.3635 13.9093 21.7869 14.109 22.2746 14.5859V13.2058C21.7598 12.9446 21.3365 12.8364 20.8317 12.8364C19.0544 12.8367 17.6299 14.2351 17.6299 15.9833Z" fill="#231F20"/>
<path id="Vector_6" d="M31.5744 17.0117L29.9708 12.9727H28.6895L31.2415 19.1401H31.8726L34.4703 12.9727H33.1988L31.5744 17.0117Z" fill="#231F20"/>
<path id="Vector_7" d="M35.001 18.9858H38.3274V17.968H36.173V16.3449H38.2479V15.3262H36.173V13.9916H38.3274V12.9727H35.001V18.9858Z" fill="#231F20"/>
<path id="Vector_8" d="M42.9712 14.7479C42.9712 13.6221 42.1958 12.9727 40.8431 12.9727H39.104V18.9858H40.2755V16.5703H40.4285L42.0519 18.9859H43.4943L41.6015 16.4525C42.4848 16.2729 42.9712 15.6686 42.9712 14.7479ZM40.6182 15.741H40.2756V13.9198H40.6367C41.3672 13.9198 41.7643 14.2259 41.7643 14.8111C41.7643 15.4157 41.3673 15.741 40.6182 15.741Z" fill="#231F20"/>
<g id="MarkingBase 1">
<path id="Vector_9" d="M25.8566 19.199C27.6232 19.199 29.0554 17.7668 29.0554 16.0001C29.0554 14.2334 27.6232 12.8013 25.8566 12.8013C24.0899 12.8013 22.6577 14.2334 22.6577 16.0001C22.6577 17.7668 24.0899 19.199 25.8566 19.199Z" fill="url(#paint0_linear_952_3716)"/>
<path id="Vector_10" opacity="0.65" d="M25.8566 19.199C27.6232 19.199 29.0554 17.7668 29.0554 16.0001C29.0554 14.2334 27.6232 12.8013 25.8566 12.8013C24.0899 12.8013 22.6577 14.2334 22.6577 16.0001C22.6577 17.7668 24.0899 19.199 25.8566 19.199Z" fill="url(#paint1_linear_952_3716)"/>
</g>
<g id="Registered 1">
<path id="Vector_11" d="M43.72 13.1987C43.72 13.0933 43.6473 13.0356 43.5198 13.0356H43.3501V13.5642H43.4762V13.3591L43.6241 13.5642H43.7781L43.6042 13.3462C43.6789 13.3263 43.72 13.2721 43.72 13.1987ZM43.4976 13.2709H43.4763V13.1327H43.499C43.5613 13.1327 43.5939 13.1552 43.5939 13.2007C43.5939 13.2473 43.5609 13.2709 43.4976 13.2709Z" fill="#231F20"/>
<path id="Vector_12" d="M43.5453 12.8384C43.2887 12.8384 43.085 13.0431 43.085 13.2991C43.085 13.5549 43.291 13.76 43.5453 13.76C43.7953 13.76 44.0001 13.5526 44.0001 13.2991C44.0001 13.0466 43.7952 12.8384 43.5453 12.8384ZM43.5433 13.6776C43.3413 13.6776 43.1761 13.5095 43.1761 13.2998C43.1761 13.0893 43.3392 12.9214 43.5433 12.9214C43.7443 12.9214 43.9081 13.0932 43.9081 13.2998C43.9081 13.5077 43.7445 13.6776 43.5433 13.6776Z" fill="#231F20"/>
</g>
</g>
</g>
</g>
<defs>
<linearGradient id="paint0_linear_952_3716" x1="27.4939" y1="18.5638" x2="25.2791" y2="15.0959" gradientUnits="userSpaceOnUse">
<stop stop-color="#F89F21"/>
<stop offset="0.2502" stop-color="#F79A23"/>
<stop offset="0.5331" stop-color="#F78E22"/>
<stop offset="0.6196" stop-color="#F68721"/>
<stop offset="0.7232" stop-color="#F48220"/>
<stop offset="1" stop-color="#F27623"/>
</linearGradient>
<linearGradient id="paint1_linear_952_3716" x1="27.1441" y1="18.5166" x2="23.907" y2="12.1896" gradientUnits="userSpaceOnUse">
<stop stop-color="#F68721" stop-opacity="0"/>
<stop offset="0.3587" stop-color="#E27027" stop-opacity="0.2704"/>
<stop offset="0.703" stop-color="#D4612C" stop-opacity="0.5299"/>
<stop offset="0.9816" stop-color="#D15D2D" stop-opacity="0.74"/>
</linearGradient>
</defs>
</svg>
