<svg width="50" height="32" viewBox="0 0 50 32" fill="none" xmlns="http://www.w3.org/2000/svg">
<g id="eBay">
<g id="eBay_2">
<rect id="Rectangle" width="50" height="32" rx="3" fill="black"/>
<g id="Group">
<path id="e" d="M10.9137 11.709C8.23345 11.709 6 12.8461 6 16.2766C6 18.9944 7.50183 20.7059 10.9829 20.7059C15.0803 20.7059 15.3429 18.0068 15.3429 18.0068H13.3576C13.3576 18.0068 12.9319 19.4602 10.8618 19.4602C9.17575 19.4602 7.96309 18.3212 7.96309 16.7248H15.5506V15.723C15.5506 14.1436 14.5479 11.709 10.9137 11.709ZM10.8445 12.9893C12.4494 12.9893 13.5436 13.9725 13.5436 15.4462H8.007C8.007 13.8817 9.43513 12.9893 10.8445 12.9893Z" fill="#E53238"/>
<path id="b" d="M15.5493 8.38721V18.9832C15.5493 19.5847 15.5063 20.4292 15.5063 20.4292H17.4C17.4 20.4292 17.4679 19.8227 17.4679 19.2683C17.4679 19.2683 18.4035 20.732 20.9474 20.732C23.6262 20.732 25.4459 18.8722 25.4459 16.2076C25.4459 13.7288 23.7745 11.7351 20.9517 11.7351C18.3084 11.7351 17.4871 13.1625 17.4871 13.1625V8.38721H15.5493ZM20.463 13.0457C22.2821 13.0457 23.4389 14.3958 23.4389 16.2076C23.4389 18.1504 22.1028 19.4214 20.4759 19.4214C18.5344 19.4214 17.4871 17.9054 17.4871 16.2249C17.4871 14.659 18.4269 13.0457 20.463 13.0457Z" fill="#0064D2"/>
<path id="a" d="M30.152 11.709C26.1197 11.709 25.8611 13.9168 25.8611 14.2696H27.8681C27.8681 14.2696 27.9734 12.9807 30.0136 12.9807C31.3393 12.9807 32.3666 13.5875 32.3666 14.7541V15.1693H30.0136C26.8897 15.1693 25.2383 16.0832 25.2383 17.9376C25.2383 19.7626 26.7642 20.7556 28.8262 20.7556C31.6365 20.7556 32.5418 19.2028 32.5418 19.2028C32.5418 19.8204 32.5894 20.4291 32.5894 20.4291H34.3736C34.3736 20.4291 34.3044 19.6746 34.3044 19.192V15.0201C34.3044 12.2847 32.098 11.709 30.152 11.709ZM32.3666 16.4151V16.9687C32.3666 17.6908 31.921 19.4861 29.2977 19.4861C27.8612 19.4861 27.2453 18.7692 27.2453 17.9376C27.2453 16.4248 29.3194 16.4151 32.3666 16.4151Z" fill="#F5AF02"/>
<path id="y" d="M33.2236 12.0557H35.4815L38.7219 18.5475L41.9548 12.0557H44.0001L38.1114 23.6132H35.966L37.6652 20.3914L33.2236 12.0557Z" fill="#86B817"/>
</g>
</g>
</g>
</svg>
