<svg width="50" height="32" viewBox="0 0 50 32" fill="none" xmlns="http://www.w3.org/2000/svg">
<g id="MasterCard" clip-path="url(#clip0_952_3711)">
<g id="MasterCard_2">
<rect id="Rectangle" width="50" height="32" rx="3" fill="#0F3560"/>
<g id="Group">
<g id="Group_2">
<path id="Vector" d="M29.3635 23.8647H20.6143V8.14087H29.3635V23.8647Z" fill="#FF5F00"/>
<g id="Group_3">
<path id="Vector_2" d="M21.1748 16.0015C21.1748 12.8118 22.6682 9.97057 24.9938 8.13955C23.2931 6.80063 21.1468 6.00147 18.8142 6.00147C13.2919 6.00147 8.81543 10.4785 8.81543 16.0015C8.81543 21.5244 13.2919 26.0015 18.8142 26.0015C21.1468 26.0015 23.2931 25.2023 24.9938 23.8634C22.6682 22.0324 21.1748 19.1911 21.1748 16.0015Z" fill="#EB001B"/>
</g>
<g id="Group_4">
<path id="Vector_3" d="M41.1634 16.0015C41.1634 21.5244 36.687 26.0015 31.1647 26.0015C28.832 26.0015 26.6857 25.2023 24.9844 23.8634C27.3107 22.0324 28.8041 19.1911 28.8041 16.0015C28.8041 12.8118 27.3107 9.97057 24.9844 8.13955C26.6857 6.80063 28.832 6.00147 31.1647 6.00147C36.687 6.00147 41.1634 10.4785 41.1634 16.0015Z" fill="#F79E1B"/>
</g>
</g>
<g id="Group_5">
<path id="Vector_4" d="M16.3393 16.0648C16.3393 15.628 16.6256 15.2692 17.0933 15.2692C17.5402 15.2692 17.8419 15.6126 17.8419 16.0648C17.8419 16.5171 17.5402 16.8605 17.0933 16.8605C16.6256 16.8605 16.3393 16.5016 16.3393 16.0648ZM18.3513 16.0648V14.8223H17.811V15.124C17.6396 14.9002 17.3796 14.7598 17.0261 14.7598C16.3292 14.7598 15.7829 15.3061 15.7829 16.0648C15.7829 16.8242 16.3292 17.3699 17.0261 17.3699C17.3796 17.3699 17.6396 17.2294 17.811 17.0057V17.3074H18.3513V16.0648ZM36.6111 16.0648C36.6111 15.628 36.8974 15.2692 37.3651 15.2692C37.8126 15.2692 38.1137 15.6126 38.1137 16.0648C38.1137 16.5171 37.8126 16.8605 37.3651 16.8605C36.8974 16.8605 36.6111 16.5016 36.6111 16.0648ZM38.6237 16.0648V13.8243H38.0828V15.124C37.9114 14.9002 37.6513 14.7598 37.2979 14.7598C36.601 14.7598 36.0547 15.3061 36.0547 16.0648C36.0547 16.8242 36.601 17.3699 37.2979 17.3699C37.6513 17.3699 37.9114 17.2294 38.0828 17.0057V17.3074H38.6237V16.0648ZM25.0586 15.2436C25.4067 15.2436 25.6305 15.462 25.6876 15.8464H24.3981C24.4558 15.4876 24.6736 15.2436 25.0586 15.2436ZM25.0693 14.7598C24.3409 14.7598 23.8315 15.29 23.8315 16.0648C23.8315 16.8551 24.3618 17.3699 25.1056 17.3699C25.4799 17.3699 25.8227 17.2764 26.1244 17.0217L25.8596 16.6212C25.6513 16.7873 25.3859 16.8813 25.1366 16.8813C24.7884 16.8813 24.4713 16.72 24.3933 16.2725H26.2387C26.244 16.2053 26.2494 16.1374 26.2494 16.0648C26.244 15.29 25.7656 14.7598 25.0693 14.7598ZM31.5939 16.0648C31.5939 15.628 31.8802 15.2692 32.3479 15.2692C32.7948 15.2692 33.0965 15.6126 33.0965 16.0648C33.0965 16.5171 32.7948 16.8605 32.3479 16.8605C31.8802 16.8605 31.5939 16.5016 31.5939 16.0648ZM33.6059 16.0648V14.8223H33.0656V15.124C32.8936 14.9002 32.6341 14.7598 32.2806 14.7598C31.5838 14.7598 31.0375 15.3061 31.0375 16.0648C31.0375 16.8242 31.5838 17.3699 32.2806 17.3699C32.6341 17.3699 32.8936 17.2294 33.0656 17.0057V17.3074H33.6059V16.0648ZM28.5423 16.0648C28.5423 16.8188 29.0672 17.3699 29.8681 17.3699C30.2425 17.3699 30.4918 17.2866 30.762 17.0735L30.5025 16.6367C30.2996 16.7825 30.0865 16.8605 29.8521 16.8605C29.4206 16.8551 29.1035 16.5433 29.1035 16.0648C29.1035 15.5864 29.4206 15.2746 29.8521 15.2692C30.0865 15.2692 30.2996 15.3472 30.5025 15.493L30.762 15.0562C30.4918 14.8431 30.2425 14.7598 29.8681 14.7598C29.0672 14.7598 28.5423 15.3109 28.5423 16.0648ZM35.509 14.7598C35.1972 14.7598 34.9943 14.9056 34.8538 15.124V14.8223H34.3182V17.3074H34.8592V15.9143C34.8592 15.5031 35.0359 15.2746 35.3894 15.2746C35.4989 15.2746 35.6132 15.29 35.7274 15.337L35.894 14.8276C35.7744 14.7806 35.6185 14.7598 35.509 14.7598ZM21.0239 15.0199C20.7638 14.8485 20.4056 14.7598 20.0105 14.7598C19.3808 14.7598 18.9756 15.0615 18.9756 15.5554C18.9756 15.9607 19.2773 16.2106 19.8331 16.2886L20.0884 16.3249C20.3848 16.3665 20.5246 16.4445 20.5246 16.5849C20.5246 16.7772 20.327 16.8867 19.9581 16.8867C19.5838 16.8867 19.3136 16.767 19.1315 16.6266L18.8768 17.0473C19.1732 17.2657 19.5475 17.3699 19.9527 17.3699C20.6704 17.3699 21.0864 17.0319 21.0864 16.5588C21.0864 16.122 20.7591 15.8935 20.2181 15.8155L19.9634 15.7786C19.7296 15.7477 19.5421 15.7012 19.5421 15.5346C19.5421 15.3525 19.7189 15.2436 20.0152 15.2436C20.3324 15.2436 20.6395 15.3632 20.79 15.4567L21.0239 15.0199ZM27.996 14.7598C27.6842 14.7598 27.4812 14.9056 27.3414 15.124V14.8223H26.8058V17.3074H27.3461V15.9143C27.3461 15.5031 27.5229 15.2746 27.8764 15.2746C27.9859 15.2746 28.1001 15.29 28.2144 15.337L28.381 14.8276C28.2614 14.7806 28.1055 14.7598 27.996 14.7598ZM23.3846 14.8223H22.5009V14.0683H21.9546V14.8223H21.4506V15.3162H21.9546V16.4499C21.9546 17.0265 22.1784 17.3699 22.8175 17.3699C23.052 17.3699 23.3221 17.2973 23.4935 17.1777L23.3376 16.7147C23.1763 16.8081 22.9996 16.8551 22.8592 16.8551C22.589 16.8551 22.5009 16.6885 22.5009 16.4391V15.3162H23.3846V14.8223ZM15.3051 17.3074V15.7477C15.3051 15.1603 14.9307 14.7652 14.3273 14.7598C14.0101 14.7544 13.6828 14.8532 13.4537 15.202C13.2823 14.9264 13.0122 14.7598 12.6325 14.7598C12.3671 14.7598 12.1076 14.8378 11.9047 15.1288V14.8223H11.3638V17.3074H11.9095V15.9298C11.9095 15.4983 12.1487 15.2692 12.5182 15.2692C12.8771 15.2692 13.0586 15.5031 13.0586 15.9244V17.3074H13.6049V15.9298C13.6049 15.4983 13.8542 15.2692 14.2131 15.2692C14.582 15.2692 14.7588 15.5031 14.7588 15.9244V17.3074H15.3051Z" fill="white"/>
</g>
</g>
</g>
</g>
<defs>
<clipPath id="clip0_952_3711">
<rect width="50" height="32" fill="white"/>
</clipPath>
</defs>
</svg>
