<svg width="50" height="32" viewBox="0 0 50 32" fill="none" xmlns="http://www.w3.org/2000/svg">
<g id="Payoneer" clip-path="url(#clip0_952_3718)">
<g id="Payoneer_2">
<rect id="Rectangle" width="50" height="32" rx="3" fill="black"/>
<g id="Group">
<g id="Group_2">
<g id="g2670">
<path id="path2672" d="M8.7692 16.2757C8.95122 16.3135 9.11467 16.332 9.35464 16.332C10.2944 16.332 10.9277 15.7365 10.9277 14.9802C10.9277 14.2997 10.4386 14.0543 9.80586 14.0543C9.527 14.0543 9.316 14.0733 9.18178 14.1106L8.7692 16.2757ZM8.24147 13.3263C8.63498 13.2313 9.22042 13.175 9.79595 13.175C10.4007 13.175 11.0339 13.2975 11.4559 13.6288C11.8301 13.9123 12.0508 14.3275 12.0508 14.8955C12.0508 15.6513 11.686 16.2664 11.2254 16.6253C10.7075 17.0318 9.96805 17.2304 9.20059 17.2304C8.97003 17.2304 8.7692 17.2016 8.59634 17.183L8.12606 19.5938H7.03271L8.24147 13.3263Z" fill="white"/>
</g>
<g id="g2674">
<path id="path2676" d="M15.015 15.7834C14.9001 15.7546 14.7564 15.7363 14.5549 15.7363C13.5281 15.7363 12.722 16.8806 12.722 17.9299C12.722 18.4113 12.9043 18.8087 13.3939 18.8087C13.9211 18.8087 14.5549 18.1663 14.7755 16.9938L15.015 15.7834ZM14.5643 19.5936C14.5643 19.3189 14.6024 18.9507 14.6413 18.5625H14.622C14.1616 19.4045 13.5375 19.6973 12.9427 19.6973C12.1081 19.6973 11.5605 19.0544 11.5605 18.1283C11.5605 16.559 12.6737 14.8856 14.852 14.8856C15.3604 14.8856 15.9075 14.98 16.2723 15.0934L15.7829 17.4947C15.6482 18.1751 15.5717 19.0451 15.591 19.5936H14.5643Z" fill="white"/>
</g>
<g id="g2678">
<path id="path2680" d="M22.6227 17.7691C22.6227 18.4017 22.9585 18.8473 23.5343 18.8473C24.3691 18.8473 24.9258 17.7123 24.9258 16.7954C24.9258 16.3223 24.7047 15.7363 24.0336 15.7363C23.1411 15.7363 22.6227 16.9089 22.6227 17.7691ZM26.0772 16.7864C26.0772 18.3552 24.9734 19.6973 23.381 19.6973C22.2002 19.6973 21.4717 18.8939 21.4717 17.7969C21.4717 16.2377 22.5749 14.8858 24.1678 14.8858C25.4246 14.8858 26.0772 15.7744 26.0772 16.7864Z" fill="white"/>
</g>
<g id="g2682">
<path id="path2684" d="M26.2871 19.5938L26.8919 16.4172C27.0068 15.8687 27.0739 15.3866 27.1316 14.9899H28.1301L28.0244 15.8124H28.0432C28.4746 15.1975 29.0699 14.8857 29.7225 14.8857C30.3938 14.8857 30.9122 15.2832 30.9122 16.1527C30.9122 16.3603 30.8745 16.6816 30.8262 16.9088L30.3168 19.5938H29.1942L29.6927 16.9939C29.7225 16.8239 29.7509 16.6253 29.7509 16.4455C29.7509 16.0578 29.6071 15.7836 29.1658 15.7836C28.6573 15.7836 28.0045 16.3884 27.8032 17.4668L27.4003 19.5938H26.2871Z" fill="white"/>
</g>
<g id="g2686">
<path id="path2688" d="M33.8855 15.708C33.1847 15.708 32.7246 16.3223 32.5903 16.8806C33.7414 16.8898 34.4809 16.7386 34.4809 16.1811C34.4809 15.8881 34.2409 15.708 33.8855 15.708ZM34.9507 19.3286C34.4898 19.5648 33.8667 19.6973 33.3001 19.6973C32.0059 19.6973 31.3818 18.9131 31.3818 17.7879C31.3818 16.3982 32.4175 14.8858 34.0297 14.8858C34.9507 14.8858 35.5361 15.4055 35.5361 16.1811C35.5361 17.3624 34.2795 17.7403 32.4757 17.7028C32.4561 17.8633 32.4945 18.1751 32.6003 18.3549C32.7828 18.6672 33.1176 18.8277 33.5596 18.8277C34.0879 18.8277 34.5093 18.6953 34.8462 18.5252L34.9507 19.3286Z" fill="white"/>
</g>
<g id="g2690">
<path id="path2692" d="M38.2312 15.708C37.5311 15.708 37.0703 16.3223 36.936 16.8806C38.0871 16.8898 38.8266 16.7386 38.8266 16.1811C38.8266 15.8881 38.5866 15.708 38.2312 15.708ZM39.2964 19.3286C38.8362 19.5648 38.2124 19.6973 37.6468 19.6973C36.3516 19.6973 35.7275 18.9131 35.7275 17.7879C35.7275 16.3982 36.7632 14.8858 38.3754 14.8858C39.2964 14.8858 39.8828 15.4055 39.8828 16.1811C39.8828 17.3624 38.6252 17.7403 36.8214 17.7028C36.8016 17.8633 36.8402 18.1751 36.946 18.3549C37.1285 18.6672 37.464 18.8277 37.9053 18.8277C38.4336 18.8277 38.8551 18.6953 39.1919 18.5252L39.2964 19.3286Z" fill="white"/>
</g>
<g id="g2694">
<path id="path2696" d="M39.9492 19.5938L40.496 16.7575C40.6206 16.1054 40.6877 15.3964 40.735 14.9899H41.7045C41.6758 15.3017 41.6473 15.623 41.599 15.9544H41.6275C41.9455 15.3395 42.4529 14.8857 43.0867 14.8857C43.1736 14.8857 43.2595 14.8955 43.3365 14.8955L43.1154 15.9731C43.0579 15.9634 42.9812 15.9634 42.9041 15.9634C42.1072 15.9634 41.599 16.7575 41.4173 17.7405L41.0619 19.5938H39.9492Z" fill="white"/>
</g>
<g id="g2698">
<path id="path2700" d="M44.1855 15.411H44.2674C44.3513 15.411 44.4067 15.365 44.4067 15.2953C44.4067 15.217 44.3485 15.1826 44.2646 15.1826C44.226 15.1826 44.1985 15.1854 44.1855 15.1884V15.411ZM44.1055 15.1333C44.1461 15.126 44.2044 15.1208 44.2585 15.1208C44.3434 15.1208 44.3998 15.1378 44.4372 15.1709C44.468 15.1977 44.4858 15.2395 44.4858 15.2876C44.4858 15.3667 44.4352 15.4203 44.3701 15.4416V15.4446C44.4174 15.4606 44.4451 15.5045 44.4608 15.5676C44.4807 15.6517 44.4954 15.7111 44.5084 15.7349H44.4255C44.4156 15.7163 44.4016 15.665 44.3859 15.5891C44.367 15.505 44.3327 15.4739 44.2605 15.4709H44.1855V15.7349H44.1055V15.1333Z" fill="white"/>
</g>
<g id="g2702">
<path id="path2704" d="M44.2892 14.8854C43.9842 14.8854 43.7363 15.1296 43.7363 15.4301C43.7363 15.7307 43.9842 15.9751 44.2892 15.9751C44.5943 15.9751 44.8421 15.7307 44.8421 15.4301C44.8421 15.1296 44.5943 14.8854 44.2892 14.8854ZM44.2892 14.9696C44.547 14.9696 44.7562 15.1752 44.7562 15.4301C44.7562 15.6848 44.547 15.8912 44.2892 15.8912C44.0307 15.8912 43.8212 15.6848 43.8212 15.4301C43.8212 15.1752 44.0307 14.9696 44.2892 14.9696Z" fill="white"/>
</g>
</g>
<g id="g2666">
<path id="path2668" d="M16.6527 10.5568C16.6992 11.5957 17.6103 15.5599 17.6103 15.5599C17.9451 16.3628 18.2334 15.5599 18.2334 15.5599C19.3356 12.3032 17.0831 10.4159 17.0831 10.4159C16.5081 10.0848 16.6527 10.5568 16.6527 10.5568ZM29.7314 9.99086C29.7314 9.99086 30.8342 10.7459 29.7314 10.8874C29.7314 10.8874 25.611 11.3593 22.545 14.192C22.545 14.192 17.9451 18.1554 16.2208 22.498C16.2208 22.498 15.6458 22.498 15.8382 21.6488C16.0296 20.7993 17.1789 17.0703 22.3048 12.4927C22.3048 12.4927 27.241 8.05571 29.7314 9.99086Z" fill="#FF4600"/>
</g>
</g>
</g>
</g>
<defs>
<clipPath id="clip0_952_3718">
<rect width="50" height="32" fill="white"/>
</clipPath>
</defs>
</svg>
