<svg width="50" height="32" viewBox="0 0 50 32" fill="none" xmlns="http://www.w3.org/2000/svg">
<g id="Western Union" clip-path="url(#clip0_952_3717)">
<g id="Western Union_2">
<rect id="Rectangle" width="50" height="32" rx="3" fill="#0D0D0D"/>
<g id="Group">
<g id="g316">
<path id="path318" d="M4.5625 13.9025H5.57747L5.81961 15.7044H5.82731L6.09388 13.9025H7.26739L7.53302 15.7044H7.54072L7.78343 13.9025H8.79839L8.18036 16.7664H6.95011L6.68486 14.9111H6.67716L6.41135 16.7664H5.18148L4.5625 13.9025Z" fill="#FDDF12"/>
</g>
<g id="g320">
<path id="path322" d="M9.46094 13.9025H11.6393V14.6493H10.548V14.9538H11.5559V15.6999H10.548V16.0211H11.6748V16.7664H9.46094V13.9025Z" fill="#FDDF12"/>
</g>
<g id="g324">
<g id="g326">
<g id="g332">
<path id="path334" d="M13.9635 14.716C13.9592 14.5375 13.8602 14.4778 13.7133 14.4778C13.5312 14.4778 13.4512 14.5571 13.4512 14.645C13.4512 14.7472 13.5187 14.7911 13.6376 14.827C13.8558 14.8911 14.2564 14.9696 14.5456 15.093C14.9074 15.2433 15.0656 15.5018 15.0656 15.8463C15.0656 16.5485 14.4947 16.8423 13.6847 16.8423C12.9947 16.8423 12.3604 16.6281 12.3604 15.8822H13.4475C13.4475 15.9622 13.4636 16.0411 13.507 16.101C13.5504 16.1557 13.622 16.1914 13.7289 16.1914C13.8953 16.1914 14.0031 16.0843 14.0031 15.9577C14.0031 15.851 13.9197 15.7956 13.8121 15.7634L13.0068 15.5258C12.567 15.3947 12.4126 15.1283 12.4126 14.7599C12.4126 14.1646 12.8925 13.8274 13.7289 13.8274C14.4427 13.8274 14.979 14.0502 14.979 14.716H13.9635Z" fill="#FDDF12"/>
</g>
</g>
</g>
<g id="g336">
<path id="path338" d="M16.3862 14.6731H15.6807V13.9025H18.2268V14.6731H17.5207V16.7661H16.3862V14.6731Z" fill="#FDDF12"/>
</g>
<g id="g340">
<path id="path342" d="M18.9644 13.9025H21.1423V14.6493H20.052V14.9538H21.0593V15.6999H20.052V16.0211H21.1786V16.7664H18.9644V13.9025Z" fill="#FDDF12"/>
</g>
<g id="g344">
<g id="g346">
<g id="g352">
<path id="path354" d="M21.9873 13.9025H23.6812C24.296 13.9025 24.6571 14.0896 24.6571 14.6295C24.6571 14.9586 24.5179 15.2076 24.0888 15.3114V15.3191C24.367 15.3432 24.5179 15.4655 24.5731 15.6845C24.6364 15.93 24.6293 16.3345 24.7596 16.7664H23.6494C23.5824 16.5524 23.5465 16.1915 23.5063 15.9462C23.4834 15.8027 23.4114 15.7482 23.229 15.7482H23.0977V16.7664H21.9873V13.9025ZM23.1929 15.0967C23.4114 15.0967 23.57 15.0214 23.57 14.8078C23.57 14.5976 23.4229 14.5536 23.2003 14.5536H23.0977V15.0967H23.1929Z" fill="#FDDF12"/>
</g>
</g>
</g>
<g id="g356">
<path id="path358" d="M25.5186 13.9025H26.8784L27.4844 15.6366H27.4931V13.9025H28.4136V16.7664H27.0537L26.4462 15.0214H26.4381V16.7664H25.5186V13.9025Z" fill="#FDDF12"/>
</g>
<g id="g360">
<g id="g362">
<g id="g368">
<path id="path370" d="M15.0418 19.236C15.0418 19.9268 14.5458 20.2722 13.6815 20.2722C12.8167 20.2722 12.3213 19.9268 12.3213 19.236V17.3329H13.4554V19.1887C13.4554 19.4147 13.5626 19.5031 13.6815 19.5031C13.8004 19.5031 13.9077 19.4147 13.9077 19.1887V17.3329H15.0418V19.236Z" fill="#FDDF12"/>
</g>
</g>
</g>
<g id="g372">
<path id="path374" d="M15.9507 17.3329H17.3111L17.9175 19.0666H17.9256V17.3329H18.8455V20.1973H17.4853L16.8791 18.4512H16.87V20.1973H15.9507V17.3329Z" fill="#FDDF12"/>
</g>
<path id="path376" d="M19.7749 17.3329H20.908V20.1973H19.7749V17.3329Z" fill="#FDDF12"/>
<g id="g378">
<g id="g380">
<g id="g386">
<path id="path388" d="M23.2127 17.2576C24.2006 17.2576 24.6926 17.872 24.6926 18.7647C24.6926 19.657 24.2006 20.2722 23.2127 20.2722C22.2253 20.2722 21.7339 19.657 21.7339 18.7647C21.7339 17.872 22.2253 17.2576 23.2127 17.2576ZM23.2127 19.5264C23.3883 19.5264 23.5179 19.4269 23.5179 18.7647C23.5179 18.1179 23.3958 18.003 23.2127 18.003C23.0308 18.003 22.9076 18.1179 22.9076 18.7647C22.9076 19.4269 23.0395 19.5264 23.2127 19.5264Z" fill="#FDDF12"/>
</g>
</g>
</g>
<g id="g390">
<path id="path392" d="M25.5186 17.3329H26.8784L27.4844 19.0666H27.4931V17.3329H28.4136V20.1973H27.0537L26.4462 18.4512H26.4381V20.1973H25.5186V17.3329Z" fill="#FDDF12"/>
</g>
<g id="g394">
<g id="g396">
<g id="g402">
<path id="path404" d="M39.0916 13.8619H38.6082L38.067 17.8817H38.0495L37.4569 13.8619H34.8382L34.244 17.8817H34.2269L33.6872 13.8619H31.4229L32.8032 20.25H35.5472L36.1393 16.1116H36.1573L36.7492 20.25H39.4932L39.6307 19.6111C39.2798 19.2384 39.0916 18.7389 39.0916 18.1083V13.8619Z" fill="#FDDF12"/>
</g>
<g id="g406">
<path id="path408" d="M39.0918 13.8618V18.1083C39.0918 18.7389 39.28 19.2384 39.6309 19.6111L40.8723 13.8618H39.0918Z" fill="white"/>
</g>
<g id="g410">
<path id="path412" d="M42.6304 13.8619V18.0028C42.6304 18.5068 42.3913 18.7031 42.1261 18.7031C41.8608 18.7031 41.6217 18.5068 41.6217 18.0028V13.8619H41.0818L39.8066 19.7701C40.324 20.2005 41.1073 20.4197 42.1261 20.4197C44.0546 20.4197 45.1608 19.6487 45.1608 18.1083V13.8619H42.6304Z" fill="#FDDF12"/>
</g>
</g>
</g>
<g id="g414">
<path id="path416" d="M29.7626 13.8619H29.3857L30.7419 20.25H31.1191L29.7626 13.8619Z" fill="#FDDF12"/>
</g>
<g id="g418">
<path id="path420" d="M31.7724 20.25H32.1494L30.7931 13.8619H30.4165L31.7724 20.25Z" fill="#FDDF12"/>
</g>
<g id="g422">
<g id="g424">
<g id="g430">
<path id="path432" d="M45.9245 14.1674C45.9211 14.1246 45.898 14.1034 45.8542 14.1034C45.8206 14.1034 45.7866 14.121 45.7866 14.158C45.7866 14.2037 45.8278 14.2091 45.864 14.2178C45.9286 14.2343 46.0235 14.2525 46.0235 14.3373C46.0235 14.4423 45.932 14.4785 45.8411 14.4785C45.7445 14.4785 45.676 14.4411 45.6788 14.3344H45.7714C45.768 14.3812 45.7951 14.413 45.8424 14.413C45.8787 14.413 45.9269 14.4019 45.9269 14.3568C45.9269 14.3068 45.8665 14.3032 45.83 14.294C45.771 14.2794 45.6899 14.2525 45.6899 14.1774C45.6899 14.0808 45.7791 14.0378 45.8659 14.0378C45.948 14.0378 46.0119 14.0823 46.0119 14.1674H45.9245Z" fill="#FDDF12"/>
</g>
</g>
</g>
<g id="g434">
<path id="path436" d="M46.3579 14.4695H46.2822L46.1704 14.1064L46.1691 14.1075V14.4695H46.084V14.0464H46.233L46.3214 14.3541H46.3226L46.4187 14.0464H46.5623V14.4695H46.4773V14.1075L46.4764 14.1064L46.3579 14.4695Z" fill="#FDDF12"/>
</g>
</g>
</g>
</g>
<defs>
<clipPath id="clip0_952_3717">
<rect width="50" height="32" fill="white"/>
</clipPath>
</defs>
</svg>
